<svg id="inspi_logo" xmlns="http://www.w3.org/2000/svg" width="234.615" height="73.695" viewBox="0 0 234.615 73.695">
  <path id="Path_3" data-name="Path 3" d="M254.288,367.425l.1.044a3.335,3.335,0,0,1,1.066-.8,2.919,2.919,0,0,1,1.259-.277,2.536,2.536,0,0,1,2.1.8,3.982,3.982,0,0,1,.661,2.464v.7a4.688,4.688,0,0,1-1.047,3.212,3.577,3.577,0,0,1-2.825,1.19,9.336,9.336,0,0,1-1.748-.186,12.68,12.68,0,0,1-1.719-.445v-9.814l-1.058-.252.15-.872,3.059-.164Zm3.044,2.409a4.23,4.23,0,0,0-.3-1.825,1.033,1.033,0,0,0-1-.58,1.628,1.628,0,0,0-.9.307,3.65,3.65,0,0,0-.847.8v4.986a5.539,5.539,0,0,0,.668.139,5.219,5.219,0,0,0,.8.062,2.591,2.591,0,0,0,.653-.088,3.124,3.124,0,0,0,.606-.223,10.119,10.119,0,0,0,.23-1.219,11.355,11.355,0,0,0,.088-1.46Z" transform="translate(-251.08 -304.278)" fill="#009883"/>
  <path id="Path_4" data-name="Path 4" d="M284.191,373.553l-.682.142-2.467,7.051a8.029,8.029,0,0,1-1.3,2.6,2.161,2.161,0,0,1-1.69.752,4.336,4.336,0,0,1-1.058-.135,4.494,4.494,0,0,1-.978-.365l.3-1.266a8.8,8.8,0,0,0,1.2.423,4.127,4.127,0,0,0,1.062.179,1.461,1.461,0,0,0,.365-.365,2.553,2.553,0,0,0,.343-.591l-2.92-8.3-.682-.142.15-.872h3.332l.15.872-.912.142,1.8,5.376h.117l1.777-5.376-.905-.142.15-.872h2.7Z" transform="translate(-266.702 -310.406)" fill="#009883"/>
  <path id="Path_5" data-name="Path 5" d="M315.488,373.315l1.058.252-.15.872H312.43l-.15-.872,1.058-.252V367.53l-1.058-.252.15-.872,3.059-.164Zm-2.332-9.2a1.566,1.566,0,0,1,.277-.923.792.792,0,0,1,.65-.4,1.555,1.555,0,0,1,.927.274.8.8,0,0,1,.383.668,1.519,1.519,0,0,1-.281.916.8.8,0,0,1-.646.391,1.559,1.559,0,0,1-.923-.274.788.788,0,0,1-.387-.653Z" transform="translate(-289.943 -304.131)" fill="#009883"/>
  <path id="Path_6" data-name="Path 6" d="M327,379.564l1.058-.252v-5.785L327,373.275l.15-.872,2.482-.164.431,1.172a4.47,4.47,0,0,1,1.361-.909,3.8,3.8,0,0,1,1.409-.263,2.635,2.635,0,0,1,1.92.646,2.515,2.515,0,0,1,.661,1.88v4.548l1.058.252-.15.872h-3.964l-.15-.872,1.058-.252v-4.438a2.139,2.139,0,0,0-.27-1.226.952.952,0,0,0-.825-.365,1.945,1.945,0,0,0-.9.274,4.6,4.6,0,0,0-1.055.828v4.935l1.058.252-.15.872h-3.967Z" transform="translate(-299.291 -310.129)" fill="#009883"/>
  <path id="Path_7" data-name="Path 7" d="M359.735,375.529a7.5,7.5,0,0,1,1.894,1.318,2.117,2.117,0,0,1,.526,1.482,1.9,1.9,0,0,1-.909,1.686,4.639,4.639,0,0,1-2.555.595,7.486,7.486,0,0,1-1.5-.146,5.676,5.676,0,0,1-1.212-.365l-.073-1.927,1.252-.15.438,1.4a3.778,3.778,0,0,0,.547.113,4.422,4.422,0,0,0,.6.04,4.863,4.863,0,0,0,.646-.04,4.257,4.257,0,0,0,.569-.113,1.6,1.6,0,0,0,.04-.27v-.292a1.128,1.128,0,0,0-.365-.836,8.252,8.252,0,0,0-1.493-.993,7.663,7.663,0,0,1-1.788-1.234,1.942,1.942,0,0,1-.515-1.405,1.781,1.781,0,0,1,.88-1.566,4.613,4.613,0,0,1,2.522-.573,6.832,6.832,0,0,1,1.256.124,6.931,6.931,0,0,1,1.3.365l.066,1.934-1.252.15-.453-1.438a3.493,3.493,0,0,0-.493-.084q-.255-.026-.478-.026a4.554,4.554,0,0,0-.588.04,3.287,3.287,0,0,0-.544.117,1.324,1.324,0,0,0-.051.259,2.664,2.664,0,0,0,0,.281.872.872,0,0,0,.318.646,8.371,8.371,0,0,0,1.416.905Z" transform="translate(-317.602 -310.138)" fill="#009883"/>
  <path id="Path_8" data-name="Path 8" d="M376.412,373.538l-1.058-.252.15-.872,2.482-.164.431,1.172a3.818,3.818,0,0,1,1.212-.876,3.286,3.286,0,0,1,1.358-.292,2.643,2.643,0,0,1,2.131.832,3.806,3.806,0,0,1,.712,2.507v.7a4.607,4.607,0,0,1-1.026,3.157,3.551,3.551,0,0,1-2.81,1.168,5.054,5.054,0,0,1-.73-.051,6.756,6.756,0,0,1-.7-.135v2.1l1.058.252-.15.887H375.5l-.15-.887,1.058-.252Zm5.267,2.3a4.456,4.456,0,0,0-.318-1.923,1.1,1.1,0,0,0-1.058-.635,1.6,1.6,0,0,0-.865.307,4.032,4.032,0,0,0-.872.8v4.986a6.405,6.405,0,0,0,.73.15,4.457,4.457,0,0,0,.639.051,3.652,3.652,0,0,0,.777-.08,2.6,2.6,0,0,0,.639-.215,9.375,9.375,0,0,0,.234-1.124,9.127,9.127,0,0,0,.113-1.431Z" transform="translate(-329.994 -310.14)" fill="#009883"/>
  <path id="Path_9" data-name="Path 9" d="M405.118,373.315l1.058.252-.15.872H402.06l-.15-.872,1.058-.252V367.53l-1.058-.252.15-.872,3.059-.164Zm-2.332-9.2a1.566,1.566,0,0,1,.277-.923.792.792,0,0,1,.65-.4,1.556,1.556,0,0,1,.927.274.8.8,0,0,1,.383.668,1.518,1.518,0,0,1-.281.916.8.8,0,0,1-.646.391,1.558,1.558,0,0,1-.923-.274A.788.788,0,0,1,402.786,364.11Z" transform="translate(-346.86 -304.131)" fill="#009883"/>
  <path id="Path_10" data-name="Path 10" d="M417.718,373.538l-1.058-.252.15-.872,2.482-.164.431,1.172a2.19,2.19,0,0,1,.8-.887,2.12,2.12,0,0,1,1.095-.281,2.708,2.708,0,0,1,1.223.31l-.186,2.245h-1.423l-.2-1.4-.1-.022h-.095a.7.7,0,0,0-.478.27,3.109,3.109,0,0,0-.493.73v4.935l1.3.252-.15.872h-4.2l-.15-.872,1.058-.252Z" transform="translate(-356.227 -310.14)" fill="#009883"/>
  <path id="Path_11" data-name="Path 11" d="M437.931,377.685a2.814,2.814,0,0,0,.281,1.434.974.974,0,0,0,.9.456,1.588,1.588,0,0,0,.854-.3,3.816,3.816,0,0,0,.869-.807v-4.935l-1.281-.252.15-.872,3.285-.164v7.073l1.058.252-.15.872-2.482.164-.427-1.153a3.929,3.929,0,0,1-1.241.876,3.563,3.563,0,0,1-1.442.292,2.4,2.4,0,0,1-1.887-.7,3.029,3.029,0,0,1-.628-2.08v-4.3l-1.058-.252.15-.872,3.059-.164Z" transform="translate(-367.702 -310.14)" fill="#009883"/>
  <path id="Path_12" data-name="Path 12" d="M463.26,379.574l1.058-.252v-5.785l-1.058-.252.15-.872,2.482-.164.431,1.172a4.471,4.471,0,0,1,1.361-.909,3.8,3.8,0,0,1,1.409-.263,3.208,3.208,0,0,1,1.372.274,2.394,2.394,0,0,1,.971.909,4.354,4.354,0,0,1,1.369-.883,4.015,4.015,0,0,1,1.482-.288,2.646,2.646,0,0,1,1.92.639,2.514,2.514,0,0,1,.661,1.887v4.548l1.058.252-.15.872h-3.967l-.15-.872,1.058-.252v-4.449a2.227,2.227,0,0,0-.259-1.212.931.931,0,0,0-.836-.391,1.96,1.96,0,0,0-.967.336,4.528,4.528,0,0,0-.989.788v4.934l1.058.252-.15.872h-3.964l-.15-.872,1.058-.252v-4.456a2.168,2.168,0,0,0-.266-1.223.945.945,0,0,0-.828-.365,1.913,1.913,0,0,0-.934.292,4.814,4.814,0,0,0-1.022.81v4.934l1.058.252-.15.872H463.41Z" transform="translate(-385.819 -310.138)" fill="#009883"/>
  <path id="Path_13" data-name="Path 13" d="M262.573,238.016l3.617.861-.507,2.986H252.124l-.5-2.986,3.617-.861V218.263l-3.617-.861.5-2.982,10.446-.555Zm-7.967-31.435a5.35,5.35,0,0,1,.949-3.15,2.7,2.7,0,0,1,2.212-1.354,5.311,5.311,0,0,1,3.161.934,2.735,2.735,0,0,1,1.314,2.277,5.183,5.183,0,0,1-.96,3.124,2.712,2.712,0,0,1-2.19,1.329,5.325,5.325,0,0,1-3.15-.934A2.665,2.665,0,0,1,254.606,206.58Z" transform="translate(-251.423 -202.074)" fill="#00437f"/>
  <path id="Path_14" data-name="Path 14" d="M299.85,259.385l3.617-.861V238.771l-3.617-.861.507-2.986,8.471-.555,1.46,4a15.259,15.259,0,0,1,4.653-3.1,12.985,12.985,0,0,1,4.807-.9q4.3,0,6.551,2.19t2.256,6.435v15.53l3.617.861-.515,2.982H318.11l-.5-2.986,3.617-.861V243.359a7.272,7.272,0,0,0-.923-4.186,3.286,3.286,0,0,0-2.821-1.277,6.635,6.635,0,0,0-3.073.934,15.66,15.66,0,0,0-3.6,2.832v16.844l3.617.861-.5,2.986H300.357Z" transform="translate(-282.05 -222.582)" fill="#00437f"/>
  <path id="Path_15" data-name="Path 15" d="M409.451,245.575a25.584,25.584,0,0,1,6.475,4.5,7.221,7.221,0,0,1,1.8,5.059,6.5,6.5,0,0,1-3.1,5.745q-3.1,2.036-8.738,2.037a25.549,25.549,0,0,1-5.11-.493,19.341,19.341,0,0,1-4.135-1.277l-.252-6.57,4.274-.507,1.493,4.781a12.722,12.722,0,0,0,1.872.391,14.967,14.967,0,0,0,2.047.139,16.529,16.529,0,0,0,2.19-.139,14.343,14.343,0,0,0,1.945-.391,5.41,5.41,0,0,0,.139-.923q.04-.518.04-1a3.854,3.854,0,0,0-1.252-2.858,28,28,0,0,0-5.11-3.391,25.993,25.993,0,0,1-6.088-4.2,6.679,6.679,0,0,1-1.759-4.792,6.088,6.088,0,0,1,3-5.351q3-1.96,8.613-1.96a23.3,23.3,0,0,1,4.285.431,23.724,23.724,0,0,1,4.438,1.288l.23,6.6-4.274.507-1.544-4.905a11.916,11.916,0,0,0-1.683-.292,16.166,16.166,0,0,0-1.631-.088,15.327,15.327,0,0,0-2.011.139,11.231,11.231,0,0,0-1.858.391,4.528,4.528,0,0,0-.175.887,9.045,9.045,0,0,0-.051.96,2.978,2.978,0,0,0,1.095,2.19A27.279,27.279,0,0,0,409.451,245.575Z" transform="translate(-343.222 -222.583)" fill="#00437f"/>
  <path id="Path_16" data-name="Path 16" d="M464.227,238.778l-3.617-.858.507-2.986,8.471-.555,1.46,4a13.052,13.052,0,0,1,4.135-3,11.271,11.271,0,0,1,4.639-1q4.854,0,7.3,2.843t2.427,8.562v2.376q0,6.8-3.5,10.785a12.136,12.136,0,0,1-9.6,3.986,17.086,17.086,0,0,1-2.493-.179q-1.2-.175-2.391-.456v7.186l3.617.858-.5,3.037H461.117l-.507-3.037,3.617-.858Zm17.979,7.873a15.161,15.161,0,0,0-1.095-6.57,3.739,3.739,0,0,0-3.617-2.161,5.474,5.474,0,0,0-2.96,1.051,13.755,13.755,0,0,0-2.986,2.719v17A21.759,21.759,0,0,0,474,259.2a15.234,15.234,0,0,0,2.19.175,12.547,12.547,0,0,0,2.657-.277,8.839,8.839,0,0,0,2.19-.73,31.848,31.848,0,0,0,.8-3.843,31.266,31.266,0,0,0,.391-4.88Z" transform="translate(-384.136 -222.589)" fill="#00437f"/>
  <path id="Path_17" data-name="Path 17" d="M560.119,238.016l3.617.861-.507,2.986H549.674l-.5-2.986,3.617-.861V218.263l-3.617-.861.5-2.986,10.446-.555Zm-7.967-31.435a5.351,5.351,0,0,1,.949-3.15,2.7,2.7,0,0,1,2.212-1.354,5.311,5.311,0,0,1,3.161.934,2.735,2.735,0,0,1,1.314,2.277,5.182,5.182,0,0,1-.96,3.124,2.712,2.712,0,0,1-2.19,1.329,5.325,5.325,0,0,1-3.15-.934A2.665,2.665,0,0,1,552.152,206.58Z" transform="translate(-440.374 -202.074)" fill="#00437f"/>
  <path id="Path_18" data-name="Path 18" d="M609.964,246.391q4.475,2.73,5.792,4.668a6.15,6.15,0,0,1,.96,4.464A7.486,7.486,0,0,1,613.164,261a13.738,13.738,0,0,1-7.548,1.949,16.1,16.1,0,0,1-4.015-.493,11.842,11.842,0,0,1-3.212-1.277l.588-6.084h2.073l.785,4.982a10.8,10.8,0,0,0,2,.431,18.745,18.745,0,0,0,2.427.153,13.479,13.479,0,0,0,2.4-.216,12.817,12.817,0,0,0,1.972-.492,5.8,5.8,0,0,0,.821-1.314,6.538,6.538,0,0,0,.518-1.825,4.358,4.358,0,0,0-.73-3.2q-.985-1.427-5.135-4.033-3.92-2.427-5.084-4.161a5.475,5.475,0,0,1-.836-3.982,7.5,7.5,0,0,1,3.263-5.07,12.171,12.171,0,0,1,7.234-1.985,16.423,16.423,0,0,1,3.894.456,10.318,10.318,0,0,1,3.135,1.263l-.631,6.1h-2.048l-.825-5.033a10.238,10.238,0,0,0-1.77-.365,16.544,16.544,0,0,0-2.15-.139,11.7,11.7,0,0,0-2.226.215,9.853,9.853,0,0,0-1.8.493,5.029,5.029,0,0,0-1.339,2.7,3.683,3.683,0,0,0,.73,3.124A19.822,19.822,0,0,0,609.964,246.391Z" transform="translate(-471.63 -222.589)" fill="#00437f"/>
  <path id="Path_19" data-name="Path 19" d="M690.412,242.351l-5.818.555-2.073-1.971,2.354-17.088a12.954,12.954,0,0,0,0-5.2,2.223,2.223,0,0,0-2.376-1.58,8.034,8.034,0,0,0-4.745,1.9,23.084,23.084,0,0,0-4.894,5.31l-2.58,18.639-4.5-.555,5.059-36.29-3.566-.507.431-2.15,5.821-.562,2.047,1.971-2.277,16.311a19.343,19.343,0,0,1,5.161-4.938,10.65,10.65,0,0,1,5.767-1.825q3.391,0,4.716,1.77t.8,5.515l-2.478,18.055,3.591.507Z" transform="translate(-514.424 -202.567)" fill="#00437f"/>
  <path id="Path_20" data-name="Path 20" d="M758.765,262.929q-5.135,0-7.373-2.858t-1.405-8.548l.365-2.35q1.011-6.854,4.745-10.825a12.128,12.128,0,0,1,9.179-3.971q5.208,0,7.373,2.92T773,246.023l-.329,2.4a18.386,18.386,0,0,1-4.792,10.471A12.19,12.19,0,0,1,758.765,262.929Zm9.635-16.541q.657-4.781-.58-7.259a4.447,4.447,0,0,0-4.35-2.478,9.3,9.3,0,0,0-2.555.365,11.075,11.075,0,0,0-2.237.883,21.659,21.659,0,0,0-2.252,4.6,28.413,28.413,0,0,0-1.416,5.664l-.416,3q-.606,4.6.9,7.044a4.6,4.6,0,0,0,4.084,2.442,9.077,9.077,0,0,0,2.314-.318,12.83,12.83,0,0,0,2.467-.949,16.862,16.862,0,0,0,2.161-4.048A26.182,26.182,0,0,0,768,249.4Z" transform="translate(-567.754 -222.586)" fill="#00437f"/>
  <path id="Path_21" data-name="Path 21" d="M820.629,234.916l5.818-.555,2.047,1.971-.682,4.807a18.361,18.361,0,0,1,4.628-4.964,8.722,8.722,0,0,1,5.084-1.825q4.325,0,5.73,2.453t.672,7.537l-.657,4.745a17.826,17.826,0,0,1-4.453,10.1,11.537,11.537,0,0,1-8.675,3.7,19.39,19.39,0,0,1-2.642-.19q-1.38-.19-2.617-.467l-1.19,8.486,3.591.507-.431,2.15H815.8l-.2-2.15,3.54-.507,4.635-33.147-3.566-.507Zm18.435,11.632q.708-4.931.088-7.208a2.885,2.885,0,0,0-3.1-2.277,6.854,6.854,0,0,0-4.38,2.011,21.942,21.942,0,0,0-4.285,5.274l-2.19,15.577a14.485,14.485,0,0,0,2.325.595,15.436,15.436,0,0,0,2.73.241,10.906,10.906,0,0,0,2.632-.318,13.139,13.139,0,0,0,2.756-.949,20.439,20.439,0,0,0,1.708-4.015,32.951,32.951,0,0,0,1.252-5.613Z" transform="translate(-609.563 -222.57)" fill="#00437f"/>
</svg>
