<svg xmlns="http://www.w3.org/2000/svg" width="233.26" height="175.8" viewBox="0 0 233.26 175.8">
  <g id="html_svg_logo" data-name="html svg logo" transform="translate(-319 -118)">
    <g id="javascript" transform="translate(457 186)">
      <path id="Path_603" data-name="Path 603" d="M0,0H95.26V95.26H0Z" fill="#f0db4f"/>
      <path id="Path_604" data-name="Path 604" d="M338.926,506.563c-.7-4.346-3.531-8-11.926-11.4-2.916-1.34-6.167-2.3-7.135-4.509a4.919,4.919,0,0,1-.172-2.789c.625-2.526,3.64-3.314,6.031-2.59a6.636,6.636,0,0,1,3.876,3.595c4.111-2.662,4.1-2.644,6.973-4.473a17.768,17.768,0,0,0-2.3-3.079c-2.472-2.762-5.841-4.184-11.228-4.075-.933.118-1.874.244-2.807.362a12.734,12.734,0,0,0-6.755,3.984c-4.509,5.116-3.224,14.072,2.264,17.757,5.406,4.057,13.347,4.98,14.362,8.775.987,4.645-3.414,6.148-7.787,5.614-3.224-.67-5.016-2.309-6.954-5.288-3.568,2.065-3.568,2.065-7.235,4.174a16.1,16.1,0,0,0,3.242,4.41c6.9,7,24.168,6.656,27.265-3.939A13.08,13.08,0,0,0,338.926,506.563ZM303.249,477.8h-8.91c0,7.7-.036,15.339-.036,23.036,0,4.9.254,9.39-.543,10.767-1.3,2.707-4.682,2.372-6.221,1.847a7.648,7.648,0,0,1-3.287-3.414,4.587,4.587,0,0,0-.507-.815q-3.626,2.214-7.244,4.437a14.318,14.318,0,0,0,5.252,6.013,17.3,17.3,0,0,0,12.732,1.567,11.25,11.25,0,0,0,7.19-5.632c2.028-3.74,1.594-8.267,1.576-13.275C303.294,494.167,303.249,486,303.249,477.8Z" transform="translate(-251.462 -434.022)" fill="#323330"/>
    </g>
    <g id="css" transform="translate(319 158.742)">
      <path id="Path_589" data-name="Path 589" d="M431.9,5h-7.937l8.255,8.963v4.263H415.206V13.231h8.255l-8.255-8.963V0H431.9ZM411.829,5h-7.947l8.266,8.963v4.263H395.135V13.231h8.255l-8.255-8.963V0h16.695ZM391.958,5.2h-8.563v7.823h8.563v5.2H377.3V0h14.658Z" transform="translate(-356.915)" fill="#131313"/>
      <path id="Path_590" data-name="Path 590" d="M8.709,589.066,0,491.4H95.683l-8.72,97.65-39.181,10.86Z" transform="translate(0 -464.851)" fill="#1572b6"/>
      <path id="Path_591" data-name="Path 591" d="M885.5,731.425l31.66-8.78,7.445-83.446H885.5Z" transform="translate(-837.658 -604.665)" fill="#33a9dc"/>
      <path id="Path_592" data-name="Path 592" d="M885.5,869.737h15.852l1.091-12.264H885.5V845.5h30.039l-.286,3.215-2.945,33.011H885.5Z" transform="translate(-837.658 -799.82)" fill="#fff"/>
      <path id="Path_593" data-name="Path 593" d="M426.863,1639.556h-.054l-13.339-3.6-.854-9.552H400.6l1.68,18.807,24.539,6.829h.07v-12.48Z" transform="translate(-378.957 -1538.529)" fill="#ebebeb"/>
      <path id="Path_594" data-name="Path 594" d="M900.9,1506.205l-1.443,16.03-13.361,3.6v12.48l24.556-6.807.178-2.026,2.086-23.286H900.9Z" transform="translate(-838.226 -1424.823)" fill="#fff"/>
      <path id="Path_595" data-name="Path 595" d="M360.907,845.5v11.978H331.98l-.249-2.691-.546-6.073L330.9,845.5Zm-.043,24.237v11.978H347.676l-.232-2.691-.546-6.073-.286-3.215h14.247Z" transform="translate(-313.022 -799.819)" fill="#ebebeb"/>
    </g>
    <g id="html" transform="translate(395.555 118)">
      <path id="Path_596" data-name="Path 596" d="M96.329,70.766l-8.735,97.857L48.328,179.508,9.171,168.638.445,70.766H96.329Z" transform="translate(0 -44.168)" fill="#e44d26"/>
      <path id="Path_597" data-name="Path 597" d="M128,184.476l31.728-8.8,7.464-83.623H128Z" transform="translate(-79.613 -57.457)" fill="#f16529"/>
      <path id="Path_598" data-name="Path 598" d="M61.035,136H78.016V124h-30.1l.287,3.22,2.95,33.079H78.016v-12H62.132Zm2.705,30.3H51.691l1.682,18.847,24.589,6.825.055-.015V179.465l-.053.014L64.6,175.869l-.855-9.573Z" transform="translate(-29.63 -77.391)" fill="#ebebeb"/>
      <path id="Path_599" data-name="Path 599" d="M24.18,0h6.1V6.027h5.58V0h6.1V18.251h-6.1V12.139H30.28v6.111h-6.1V0Zm25.8,6.052H44.613V0H61.456V6.052H56.083v12.2h-6.1V6.052h0ZM64.129,0H70.49L74.4,6.413,78.311,0h6.363V18.251H78.6V9.2l-4.2,6.489H74.3L70.1,9.2v9.046H64.129ZM87.71,0h6.1V12.218h8.578v6.032H87.71V0Z" transform="translate(-14.814)"/>
      <path id="Path_600" data-name="Path 600" d="M127.889,160.294h14.781l-1.394,15.568-13.388,3.613v12.488l24.608-6.82.18-2.028,2.821-31.6.293-3.223h-27.9Zm0-24.325V136h28.994l.241-2.7.547-6.085.287-3.22H127.889V135.97Z" transform="translate(-79.544 -77.391)" fill="#fff"/>
    </g>
  </g>
</svg>
