<?xml version="1.0" encoding="iso-8859-1"?>
<!-- Generator: Adobe Illustrator 19.0.0, SVG Export Plug-In . SVG Version: 6.00 Build 0)  -->
<svg version="1.1" id="Layer_1" xmlns="http://www.w3.org/2000/svg" xmlns:xlink="http://www.w3.org/1999/xlink" x="0px" y="0px"
	 viewBox="0 0 491.52 491.52" style="enable-background:new 0 0 491.52 491.52;" xml:space="preserve">
<path style="fill:#2F4859;" d="M278.313,477.047c0,7.993-14.65,14.473-32.722,14.473c-18.071,0-32.721-6.48-32.721-14.473"/>
<path id="SVGCleanerId_0" style="fill:#FCD462;" d="M236.52,0.288c-73.249,4.555-132.314,65.08-135.218,138.413
	c-1.355,34.217,9.189,65.924,27.827,91.318C162.82,275.925,182.8,330.431,182.8,387.374v7.875h125.921v-6.854
	c0-55.88,16.947-111.052,51.245-155.166c19.034-24.481,30.369-55.243,30.369-88.655C390.335,61.669,320.552-4.938,236.52,0.288z"/>
<g>
	<path id="SVGCleanerId_0_1_" style="fill:#FCD462;" d="M236.52,0.288c-73.249,4.555-132.314,65.08-135.218,138.413
		c-1.355,34.217,9.189,65.924,27.827,91.318C162.82,275.925,182.8,330.431,182.8,387.374v7.875h125.921v-6.854
		c0-55.88,16.947-111.052,51.245-155.166c19.034-24.481,30.369-55.243,30.369-88.655C390.335,61.669,320.552-4.938,236.52,0.288z"/>
</g>
<path style="fill:#F6C358;" d="M208.557,395.249v-3.808c0-56.944-19.979-111.45-53.671-157.355
	c-18.638-25.396-29.182-57.101-27.826-91.319C129.962,69.435,189.027,8.91,262.276,4.355c6.495-0.404,12.89-0.33,19.189,0.099
	c-14.256-3.622-29.354-5.136-44.945-4.166c-73.249,4.555-132.314,65.08-135.218,138.413c-1.355,34.217,9.189,65.924,27.827,91.318
	C162.82,275.925,182.8,330.431,182.8,387.374v7.875H208.557z"/>
<rect x="182.799" y="395.264" style="fill:#64798A;" width="126.008" height="63.785"/>
<g>
	<polygon style="fill:#3A556A;" points="182.8,459.036 196.841,477.914 294.766,477.914 308.807,459.036 	"/>
	<path style="fill:#3A556A;" d="M310.441,392.354l-131.319,16.541c-3.183,0.564-5.308,3.603-4.744,6.787
		c0.564,3.184,3.603,5.308,6.787,4.744l131.318-16.541c3.184-0.564,5.308-3.603,4.744-6.787
		C316.664,393.913,313.626,391.789,310.441,392.354z"/>
	<path style="fill:#3A556A;" d="M310.441,427.234l-131.319,16.541c-3.183,0.564-5.308,3.603-4.744,6.787
		c0.564,3.184,3.603,5.308,6.787,4.744l131.318-16.541c3.184-0.564,5.308-3.603,4.744-6.787
		C316.664,428.793,313.626,426.669,310.441,427.234z"/>
</g>
<g>
</g>
<g>
</g>
<g>
</g>
<g>
</g>
<g>
</g>
<g>
</g>
<g>
</g>
<g>
</g>
<g>
</g>
<g>
</g>
<g>
</g>
<g>
</g>
<g>
</g>
<g>
</g>
<g>
</g>
</svg>
