<svg xmlns="http://www.w3.org/2000/svg" xmlns:xlink="http://www.w3.org/1999/xlink" version="1.1" id="Capa_1" x="0px" y="0px" viewBox="0 0 468.293 468.293" style="enable-background:new 0 0 468.293 468.293;" xml:space="preserve" width="512" height="512" class="hovered-paths"><g><g>
	<path style="fill:#0C4D74" d="M458.964,441.064c10.488-5.755,12.537-19.938,4.078-28.397l-93.95-93.951   c-4.754-4.755-11.774-6.494-18.16-4.391c-8.103,2.667-18.735,7.911-25.361,17.795l117.011,117.011   C448.742,446.417,454.221,443.666,458.964,441.064z" data-original="#D15242" class="" data-old_color="#D15242"></path>
	<path style="fill:#0C4D74" d="M153.968,117.362c2.102-6.386,0.363-13.406-4.391-18.16L55.626,5.251   c-8.459-8.459-22.642-6.41-28.397,4.078c-2.602,4.743-5.353,10.222-8.067,16.382l117.011,117.011   C146.057,136.097,151.301,125.464,153.968,117.362z" data-original="#D15242" class="" data-old_color="#D15242"></path>
</g><path style="fill:#1076B4" d="M319.79,360.138c0.58,4.661-3.161,8.733-7.855,8.576c-26.133-0.876-91.779-15.839-144.148-68.208  c-52.368-52.368-67.332-118.014-68.207-144.147c-0.157-4.694,3.914-8.435,8.575-7.855c12.083,1.504,21.157-1.182,28.017-5.78  L19.162,25.711C-6.871,84.81-29.463,207.056,115.887,352.406c145.35,145.35,267.596,122.759,326.695,96.725L325.571,332.12  C320.972,338.98,318.286,348.055,319.79,360.138z" data-original="#E56354" class="" data-old_color="#E56354"></path><g>
	<path style="fill:#0C4D74" d="M265.344,13.489c-8.717-0.005-15.792,7.07-15.787,15.787c-0.003,8.719,7.068,15.79,15.787,15.787   c42.097,0.003,81.725,16.446,111.582,46.303c29.859,29.859,46.303,69.487,46.303,111.587c-0.003,8.719,7.068,15.79,15.787,15.787   c4.358,0.003,8.308-1.766,11.164-4.623c2.856-2.856,4.625-6.806,4.623-11.164c0.005-50.533-19.725-98.092-55.545-133.913   C363.433,33.217,315.877,13.489,265.344,13.489z" data-original="#CD422C" class="hovered-path active-path" data-old_color="#CD422C"></path>
	<path style="fill:#0C4D74" d="M265.341,76.644c-8.717-0.005-15.787,7.065-15.787,15.787c-0.003,8.719,7.068,15.79,15.787,15.787   c52.237,0.003,94.734,42.501,94.734,94.735c-0.003,8.719,7.068,15.79,15.787,15.787c4.358,0.003,8.308-1.766,11.164-4.623   c2.856-2.856,4.625-6.806,4.623-11.164C391.649,133.307,334.989,76.647,265.341,76.644z" data-original="#CD422C" class="hovered-path active-path" data-old_color="#CD422C"></path>
	<path style="fill:#0C4D74" d="M265.341,139.802c-8.717-0.005-15.792,7.07-15.787,15.787c-0.003,8.719,7.068,15.79,15.787,15.787   c17.411,0,31.579,14.168,31.579,31.579c-0.003,8.719,7.068,15.79,15.787,15.787c4.358,0.003,8.308-1.766,11.164-4.623   c2.856-2.856,4.625-6.806,4.623-11.164C328.494,168.133,300.163,139.802,265.341,139.802z" data-original="#CD422C" class="hovered-path active-path" data-old_color="#CD422C"></path>
</g></g> </svg>