<svg xmlns="http://www.w3.org/2000/svg" width="139.327" height="135.892" viewBox="0 0 139.327 135.892"><path d="M69.664,0a69.671,69.671,0,0,0-22.02,135.769c3.477.644,4.6-1.515,4.6-3.35V119.45c-19.378,4.215-23.413-8.22-23.413-8.22-3.17-8.052-7.738-10.194-7.738-10.194-6.322-4.325.482-4.232.482-4.232,7,.488,10.676,7.181,10.676,7.181,6.212,10.647,16.3,7.57,20.272,5.788.621-4.5,2.427-7.576,4.424-9.312C41.479,98.69,25.212,92.717,25.212,66.03a26.963,26.963,0,0,1,7.175-18.7c-.72-1.759-3.106-8.847.679-18.438,0,0,5.852-1.869,19.163,7.141a66.03,66.03,0,0,1,34.884,0c13.3-9.01,19.14-7.141,19.14-7.141,3.791,9.6,1.4,16.684.685,18.438a26.89,26.89,0,0,1,7.17,18.7c0,26.757-16.3,32.649-31.807,34.373,2.5,2.16,4.778,6.4,4.778,12.9v19.117c0,1.852,1.115,4.029,4.65,3.344A69.677,69.677,0,0,0,69.664,0Z" fill="#fafafa"/></svg>