<?xml version="1.0" encoding="iso-8859-1"?>
<!-- Generator: Adobe Illustrator 19.0.0, SVG Export Plug-In . SVG Version: 6.00 Build 0)  -->
<svg version="1.1" id="Layer_1" xmlns="http://www.w3.org/2000/svg" xmlns:xlink="http://www.w3.org/1999/xlink" x="0px" y="0px"
	 viewBox="0 0 512 512" style="enable-background:new 0 0 512 512;" xml:space="preserve">
<path style="fill:#F8B64C;" d="M249.6,371.2c0,32-55.467,57.6-124.8,57.6S0,403.2,0,371.2v-38.4h249.6V371.2z"/>
<ellipse style="fill:#FFD15C;" cx="124.8" cy="332.8" rx="124.8" ry="57.6"/>
<ellipse style="fill:#F8B64C;" cx="124.8" cy="332.8" rx="102.4" ry="46.933"/>
<path style="fill:#FFD15C;" d="M118.4,353.067v-18.133c-11.733-2.133-21.333-4.267-26.667-7.467C86.4,324.267,83.2,320,83.2,315.733
	S86.4,307.2,92.8,304c6.4-3.2,14.933-5.333,25.6-5.333V294.4h13.867v4.267c9.6,1.067,18.133,2.133,23.467,4.267
	c5.333,2.133,9.6,6.4,11.733,10.667L144,314.667c-1.067-3.2-5.333-5.333-11.733-6.4v17.067c14.933,2.133,25.6,4.267,30.933,7.467
	c5.333,3.2,8.533,6.4,8.533,11.733c0,5.333-3.2,9.6-10.667,12.8c-6.4,3.2-16,5.333-28.8,6.4v8.533H118.4V364.8
	c-10.667-1.067-19.2-2.133-26.667-5.333c-6.4-3.2-10.667-7.467-12.8-12.8l24.533-1.067c1.067,2.133,3.2,4.267,5.333,6.4
	C112,350.933,115.2,353.067,118.4,353.067z M118.4,308.267c-3.2,1.067-6.4,1.067-8.533,3.2c-2.133,1.067-3.2,3.2-3.2,4.267
	c0,1.067,1.067,3.2,3.2,4.267c2.133,1.067,5.333,2.133,8.533,3.2V308.267z M132.267,354.133c4.267,0,8.533-1.067,11.733-3.2
	c3.2-1.067,4.267-3.2,4.267-5.333c0-2.133-1.067-3.2-3.2-5.333c-2.133-1.067-6.4-2.133-11.733-3.2v17.067H132.267z"/>
<path style="fill:#F8B64C;" d="M249.6,323.2c0,32-55.467,57.6-124.8,57.6S0,355.2,0,323.2v-38.4h249.6V323.2z"/>
<ellipse style="fill:#FFD15C;" cx="124.8" cy="284.8" rx="124.8" ry="57.6"/>
<ellipse style="fill:#F8B64C;" cx="124.8" cy="284.8" rx="102.4" ry="46.933"/>
<path style="fill:#FFD15C;" d="M118.4,305.067v-18.133c-11.733-2.133-21.333-4.267-26.667-7.467C86.4,276.267,83.2,272,83.2,267.733
	S86.4,259.2,92.8,256c6.4-3.2,14.933-5.333,25.6-5.333V246.4h13.867v4.267c9.6,1.067,18.133,2.133,23.467,4.267
	c5.333,2.133,9.6,6.4,11.733,10.667l-24.533,1.067c-1.067-3.2-5.333-5.333-11.733-6.4v17.067c14.933,2.133,25.6,4.267,30.933,7.467
	c5.333,3.2,8.533,6.4,8.533,11.733s-3.2,9.6-10.667,12.8c-6.4,3.2-16,5.333-28.8,6.4v8.533h-13.867V316.8
	c-10.667-1.067-19.2-2.133-26.667-5.333c-6.4-3.2-10.667-7.467-12.8-12.8L102.4,297.6c1.067,2.133,3.2,4.267,5.333,6.4
	C112,302.933,115.2,304,118.4,305.067z M118.4,260.267c-3.2,1.067-6.4,1.067-8.533,3.2c-2.133,1.067-3.2,3.2-3.2,4.267
	c0,1.067,1.067,3.2,3.2,4.267c2.133,1.067,5.333,2.133,8.533,3.2V260.267z M132.267,306.133c4.267,0,8.533-1.067,11.733-3.2
	c3.2-1.067,4.267-3.2,4.267-5.333c0-2.133-1.067-3.2-3.2-5.333c-2.133-1.067-6.4-2.133-11.733-3.2v17.067H132.267z"/>
<path style="fill:#F8B64C;" d="M249.6,275.2c0,32-55.467,57.6-124.8,57.6S0,307.2,0,275.2v-38.4h249.6V275.2z"/>
<ellipse style="fill:#FFD15C;" cx="124.8" cy="236.8" rx="124.8" ry="57.6"/>
<ellipse style="fill:#F8B64C;" cx="124.8" cy="236.8" rx="102.4" ry="46.933"/>
<path style="fill:#FFD15C;" d="M118.4,257.067v-18.133c-11.733-2.133-21.333-4.267-26.667-7.467c-6.4-3.2-8.533-7.467-8.533-11.733
	S86.4,211.2,92.8,208c6.4-3.2,14.933-5.333,25.6-5.333V198.4h13.867v4.267c9.6,1.067,18.133,2.133,23.467,4.267
	c5.333,2.133,9.6,6.4,11.733,10.667L144,218.667c-1.067-3.2-5.333-5.333-11.733-6.4v17.067c14.933,2.133,25.6,4.267,30.933,7.467
	c5.333,3.2,8.533,6.4,8.533,11.733c0,5.333-3.2,9.6-10.667,12.8c-6.4,3.2-16,5.333-28.8,6.4v8.533H118.4V268.8
	c-10.667-1.067-19.2-2.133-26.667-5.333c-6.4-3.2-10.667-7.467-12.8-12.8l24.533-1.067c1.067,2.133,3.2,4.267,5.333,6.4
	C112,254.933,115.2,256,118.4,257.067z M118.4,212.267c-3.2,1.067-6.4,1.067-8.533,3.2c-2.133,1.067-3.2,3.2-3.2,4.267
	s1.067,3.2,3.2,4.267s5.333,2.133,8.533,3.2V212.267z M132.267,258.133c4.267,0,8.533-1.067,11.733-3.2
	c3.2-1.067,4.267-3.2,4.267-5.333s-1.067-3.2-3.2-5.333c-2.133-1.067-6.4-2.133-11.733-3.2v17.067H132.267z"/>
<path style="fill:#F8B64C;" d="M249.6,227.2c0,32-55.467,57.6-124.8,57.6S0,259.2,0,227.2v-38.4h249.6V227.2z"/>
<ellipse style="fill:#FFD15C;" cx="124.8" cy="188.8" rx="124.8" ry="57.6"/>
<ellipse style="fill:#F8B64C;" cx="124.8" cy="188.8" rx="102.4" ry="46.933"/>
<path style="fill:#FFD15C;" d="M118.4,209.067v-18.133c-11.733-2.133-21.333-4.267-26.667-7.467C86.4,180.267,83.2,176,83.2,171.733
	S86.4,163.2,92.8,160c6.4-3.2,14.933-5.333,25.6-5.333V150.4h13.867v4.267c9.6,1.067,18.133,2.133,23.467,4.267
	c5.333,2.133,9.6,6.4,11.733,10.667l-24.533,1.067c-1.067-3.2-5.333-5.333-11.733-6.4v17.067c14.933,2.133,25.6,4.267,30.933,7.467
	c5.333,3.2,8.533,6.4,8.533,11.733c0,5.333-3.2,9.6-10.667,12.8c-6.4,3.2-16,5.333-28.8,6.4v8.533h-13.867V220.8
	c-10.667-1.067-19.2-2.133-26.667-5.333c-6.4-3.2-10.667-7.467-12.8-12.8L102.4,201.6c1.067,2.133,3.2,4.267,5.333,6.4
	C112,206.933,115.2,208,118.4,209.067z M118.4,163.2c-3.2,1.067-6.4,1.067-8.533,3.2c-2.133,1.067-3.2,3.2-3.2,4.267
	s1.067,3.2,3.2,4.267s5.333,2.133,8.533,3.2V163.2z M132.267,209.067c4.267,0,8.533-1.067,11.733-3.2
	c3.2-1.067,4.267-3.2,4.267-5.333c0-2.133-1.067-3.2-3.2-5.333c-2.133-1.067-6.4-2.133-11.733-3.2v17.067H132.267z"/>
<path style="fill:#F8B64C;" d="M249.6,179.2c0,32-55.467,57.6-124.8,57.6S0,211.2,0,179.2v-38.4h249.6V179.2z"/>
<ellipse style="fill:#FFD15C;" cx="124.8" cy="140.8" rx="124.8" ry="57.6"/>
<ellipse style="fill:#F8B64C;" cx="124.8" cy="140.8" rx="102.4" ry="46.933"/>
<path style="fill:#FFD15C;" d="M118.4,161.067v-18.133c-11.733-2.133-21.333-4.267-26.667-7.467c-6.4-3.2-8.533-7.467-8.533-11.733
	S86.4,115.2,92.8,112c6.4-3.2,14.933-5.333,25.6-5.333V102.4h13.867v4.267c9.6,1.067,18.133,2.133,23.467,4.267
	c5.333,2.133,9.6,6.4,11.733,10.667L144,122.667c-1.067-3.2-5.333-5.333-11.733-6.4v17.067c14.933,2.133,25.6,4.267,30.933,7.467
	c5.333,3.2,8.533,6.4,8.533,11.733c0,5.333-3.2,9.6-10.667,12.8c-6.4,3.2-16,5.333-28.8,6.4v8.533H118.4v-9.6
	c-10.667-1.067-19.2-2.133-26.667-5.333c-6.4-3.2-10.667-7.467-12.8-12.8l24.533-1.067c1.067,2.133,3.2,4.267,5.333,6.4
	C112,158.933,115.2,160,118.4,161.067z M118.4,115.2c-3.2,1.067-6.4,1.067-8.533,3.2c-2.133,1.067-3.2,3.2-3.2,4.267
	c0,1.067,1.067,3.2,3.2,4.267c2.133,1.067,5.333,2.133,8.533,3.2V115.2z M132.267,161.067c4.267,0,8.533-1.067,11.733-3.2
	c3.2-1.067,4.267-3.2,4.267-5.333s-1.067-3.2-3.2-5.333c-2.133-1.067-6.4-2.133-11.733-3.2v17.067H132.267z"/>
<path style="fill:#F8B64C;" d="M512,371.2c0,32-55.467,57.6-124.8,57.6s-124.8-25.6-124.8-57.6v-38.4H512V371.2z"/>
<ellipse style="fill:#FFD15C;" cx="387.2" cy="332.8" rx="124.8" ry="57.6"/>
<ellipse style="fill:#F8B64C;" cx="387.2" cy="332.8" rx="102.4" ry="46.933"/>
<path style="fill:#FFD15C;" d="M380.8,353.067v-18.133c-11.733-2.133-21.333-4.267-26.667-7.467
	c-5.333-3.2-8.533-7.467-8.533-11.733s3.2-8.533,9.6-11.733c6.4-3.2,14.933-5.333,25.6-5.333V294.4h13.867v4.267
	c9.6,1.067,18.133,2.133,23.467,4.267c5.333,2.133,9.6,6.4,11.733,10.667l-24.533,1.067c-1.067-3.2-5.333-5.333-11.733-6.4v17.067
	c14.933,2.133,25.6,4.267,30.933,7.467c5.333,3.2,8.533,6.4,8.533,11.733c0,5.333-3.2,9.6-10.667,12.8c-6.4,3.2-16,5.333-27.733,6.4
	v8.533H380.8V364.8c-10.667-1.067-19.2-2.133-26.667-5.333c-6.4-3.2-10.667-7.467-12.8-12.8l24.533-1.067
	c1.067,2.133,3.2,4.267,5.333,6.4C374.4,350.933,377.6,353.067,380.8,353.067z M380.8,308.267c-3.2,1.067-6.4,1.067-8.533,3.2
	c-2.133,1.067-3.2,3.2-3.2,4.267c0,1.067,1.067,3.2,3.2,4.267c2.133,1.067,5.333,2.133,8.533,3.2V308.267z M394.667,354.133
	c4.267,0,8.533-1.067,11.733-3.2c3.2-1.067,4.267-3.2,4.267-5.333c0-2.133-1.067-3.2-3.2-5.333c-2.133-1.067-6.4-2.133-11.733-3.2
	v17.067H394.667z"/>
<path style="fill:#F8B64C;" d="M512,323.2c0,32-55.467,57.6-124.8,57.6s-124.8-25.6-124.8-57.6v-38.4H512V323.2z"/>
<ellipse style="fill:#FFD15C;" cx="387.2" cy="284.8" rx="124.8" ry="57.6"/>
<ellipse style="fill:#F8B64C;" cx="387.2" cy="284.8" rx="102.4" ry="46.933"/>
<path style="fill:#FFD15C;" d="M380.8,305.067v-18.133c-11.733-2.133-21.333-4.267-26.667-7.467
	c-5.333-3.2-8.533-7.467-8.533-11.733s3.2-8.533,9.6-11.733c6.4-3.2,14.933-5.333,25.6-5.333V246.4h13.867v4.267
	c9.6,1.067,18.133,2.133,23.467,4.267c5.333,2.133,9.6,6.4,11.733,10.667l-24.533,1.067c-1.067-3.2-5.333-5.333-11.733-6.4v17.067
	c14.933,2.133,25.6,4.267,30.933,7.467c5.333,3.2,8.533,6.4,8.533,11.733s-3.2,9.6-10.667,12.8c-6.4,3.2-16,5.333-28.8,6.4v8.533
	h-13.867V316.8c-10.667-1.067-19.2-2.133-26.667-5.333c-6.4-3.2-10.667-7.467-12.8-12.8L364.8,297.6
	c1.067,2.133,3.2,4.267,5.333,6.4C374.4,302.933,377.6,304,380.8,305.067z M380.8,260.267c-3.2,1.067-6.4,1.067-8.533,3.2
	c-2.133,1.067-3.2,3.2-3.2,4.267c0,1.067,1.067,3.2,3.2,4.267c2.133,1.067,5.333,2.133,8.533,3.2V260.267z M394.667,306.133
	c4.267,0,8.533-1.067,11.733-3.2c3.2-1.067,4.267-3.2,4.267-5.333c0-2.133-1.067-3.2-3.2-5.333c-2.133-1.067-6.4-2.133-11.733-3.2
	v17.067H394.667z"/>
<path style="fill:#F8B64C;" d="M512,275.2c0,32-55.467,57.6-124.8,57.6s-124.8-25.6-124.8-57.6v-38.4H512V275.2z"/>
<ellipse style="fill:#FFD15C;" cx="387.2" cy="236.8" rx="124.8" ry="57.6"/>
<ellipse style="fill:#F8B64C;" cx="387.2" cy="236.8" rx="102.4" ry="46.933"/>
<path style="fill:#FFD15C;" d="M380.8,257.067v-18.133c-11.733-2.133-21.333-4.267-26.667-7.467
	c-5.333-3.2-8.533-7.467-8.533-11.733s3.2-8.533,9.6-11.733c6.4-3.2,14.933-5.333,25.6-5.333V198.4h13.867v4.267
	c9.6,1.067,18.133,2.133,23.467,4.267c5.333,2.133,9.6,6.4,11.733,10.667l-24.533,1.067c-1.067-3.2-5.333-5.333-11.733-6.4v17.067
	c14.933,2.133,25.6,4.267,30.933,7.467c5.333,3.2,8.533,6.4,8.533,11.733c0,5.333-3.2,9.6-10.667,12.8c-6.4,3.2-16,5.333-27.733,6.4
	v8.533H380.8V268.8c-10.667-1.067-19.2-2.133-26.667-5.333c-6.4-3.2-10.667-7.467-12.8-12.8l24.533-1.067
	c1.067,2.133,3.2,4.267,5.333,6.4C374.4,254.933,377.6,256,380.8,257.067z M380.8,212.267c-3.2,1.067-6.4,1.067-8.533,3.2
	c-2.133,1.067-3.2,3.2-3.2,4.267s1.067,3.2,3.2,4.267s5.333,2.133,8.533,3.2V212.267z M394.667,258.133
	c4.267,0,8.533-1.067,11.733-3.2c3.2-1.067,4.267-3.2,4.267-5.333s-1.067-3.2-3.2-5.333c-2.133-1.067-6.4-2.133-11.733-3.2v17.067
	H394.667z"/>
<path style="fill:#F8B64C;" d="M512,227.2c0,32-55.467,57.6-124.8,57.6s-124.8-25.6-124.8-57.6v-38.4H512V227.2z"/>
<ellipse style="fill:#FFD15C;" cx="387.2" cy="188.8" rx="124.8" ry="57.6"/>
<ellipse style="fill:#F8B64C;" cx="387.2" cy="188.8" rx="102.4" ry="46.933"/>
<path style="fill:#FFD15C;" d="M380.8,209.067v-18.133c-11.733-2.133-21.333-4.267-26.667-7.467
	c-5.333-3.2-8.533-7.467-8.533-11.733s3.2-8.533,9.6-11.733c6.4-3.2,14.933-5.333,25.6-5.333V150.4h13.867v4.267
	c9.6,1.067,18.133,2.133,23.467,4.267c5.333,2.133,9.6,6.4,11.733,10.667l-24.533,1.067c-1.067-3.2-5.333-5.333-11.733-6.4v17.067
	c14.933,2.133,25.6,4.267,30.933,7.467c5.333,3.2,8.533,6.4,8.533,11.733c0,5.333-3.2,9.6-10.667,12.8c-6.4,3.2-16,5.333-28.8,6.4
	v8.533h-13.867V220.8c-10.667-1.067-19.2-2.133-26.667-5.333c-6.4-3.2-10.667-7.467-12.8-12.8L364.8,201.6
	c1.067,2.133,3.2,4.267,5.333,6.4C374.4,206.933,377.6,208,380.8,209.067z M380.8,163.2c-3.2,1.067-6.4,1.067-8.533,3.2
	c-2.133,1.067-3.2,3.2-3.2,4.267s1.067,3.2,3.2,4.267s5.333,2.133,8.533,3.2V163.2z M394.667,209.067
	c4.267,0,8.533-1.067,11.733-3.2c3.2-1.067,4.267-3.2,4.267-5.333c0-2.133-1.067-3.2-3.2-5.333c-2.133-1.067-6.4-2.133-11.733-3.2
	v17.067H394.667z"/>
<g>
</g>
<g>
</g>
<g>
</g>
<g>
</g>
<g>
</g>
<g>
</g>
<g>
</g>
<g>
</g>
<g>
</g>
<g>
</g>
<g>
</g>
<g>
</g>
<g>
</g>
<g>
</g>
<g>
</g>
</svg>
