<svg xmlns="http://www.w3.org/2000/svg" width="658.407" height="165.396" viewBox="0 0 658.407 165.396">
  <g id="Name_162px_" data-name="Name (162px)" transform="translate(141.125 -20.119)">
    <path id="name" d="M62.37,0a37.036,37.036,0,0,1-1.848-7.392,111.2,111.2,0,0,1-.462-12.474v-25.41q0-11.088-3.927-15.824T43.428-65.835H34.65V0H9.24V-161.7H47.586q19.635,0,28.644,9.124t9.009,28.067v12.7q0,24.948-16.632,32.8A23.422,23.422,0,0,1,81.543-66.644q3.927,8.663,3.927,22.061v24.948a108.64,108.64,0,0,0,.462,11.2A28.114,28.114,0,0,0,88.242,0ZM34.65-88.935h9.933q7.623,0,11.435-3.927t3.812-13.167v-15.939q0-8.778-3.119-12.705T46.893-138.6H34.65Zm65.373-33.957q0-19.4,9.933-30.03T138.6-163.548q18.711,0,28.644,10.626t9.933,30.03v84.084q0,19.4-9.933,30.03T138.6,1.848q-18.711,0-28.644-10.626t-9.933-30.03Zm25.41,85.7q0,15.939,13.167,15.939t13.167-15.939v-87.318q0-15.939-13.167-15.939t-13.167,15.939ZM264.726-161.7h35.343V0H276.045V-115.962L258.489,0H234.465L215.523-114.345V0H193.347V-161.7H228.69L247.4-46.893ZM375.144,0l-4.389-29.337H339.57L335.181,0H311.85l25.872-161.7h37.191L400.785,0ZM367.29-51.282l-12.243-81.774L342.8-51.282Zm42.042-71.61q0-19.635,9.471-30.146t27.951-10.51q18.48,0,27.951,10.51t9.471,30.146v5.082H460.152v-6.7q0-8.316-3.234-12.127t-9.471-3.812q-6.237,0-9.471,3.812t-3.234,12.127a29.87,29.87,0,0,0,5.428,17.787Q445.6-99.1,456.456-89.4a196.667,196.667,0,0,1,14.553,14.668,59.032,59.032,0,0,1,9.471,15.361,51,51,0,0,1,3.927,20.559q0,19.635-9.7,30.145T446.523,1.848q-18.48,0-28.182-10.511t-9.7-30.145v-9.933h24.024v11.55q0,15.708,13.167,15.708T459-37.191a29.87,29.87,0,0,0-5.428-17.787Q448.14-62.6,437.283-72.3A196.667,196.667,0,0,1,422.73-86.972a59.03,59.03,0,0,1-9.471-15.361A51,51,0,0,1,409.332-122.892Z" transform="translate(32.875 183.667)" fill="#fecb2f"/>
    <g id="LOGO" transform="translate(-141.126 21.685)">
      <g id="Initials" transform="translate(0 0.434)">
        <path id="H" d="M14933.772-3070.827V-3232.5h27.575v65.825h29.58V-3232.5h27.583v161.676h-27.583v-72.752h-29.584v72.752Z" transform="translate(-14850.843 3232.502)" fill="#fecb2f"/>
        <path id="M" d="M14681.377-2930.2V-3038.6h24.315l10.839,77.585h.312l10.846-77.584h24.3v108.388h-16.1v-82.067h-.312l-12.389,82.072h-14.245l-12.392-82.069h-.314v82.066Z" transform="translate(-14681.377 3091.877)" fill="#fecb2f"/>
      </g>
      <g id="Planets" transform="translate(0.449 0.66)">
        <g id="Other">
          <circle id="Mercury" cx="8.01" cy="8.01" r="8.01" fill="#fecb2f"/>
          <circle id="Mars" cx="8.01" cy="8.01" r="8.01" transform="translate(0 27.031)" fill="#fecb2f"/>
          <circle id="Venus" cx="8.01" cy="8.01" r="8.01" transform="translate(27.037)" fill="#fecb2f"/>
        </g>
        <circle id="Jupiter" cx="8.01" cy="8.01" r="8.01" transform="translate(27.037 27.031)" fill="#fd962f"/>
        <circle id="Earth" cx="8.008" cy="8.008" r="8.008" transform="translate(54.074 0)" fill="#6f869f"/>
      </g>
    </g>
  </g>
</svg>
