<svg xmlns="http://www.w3.org/2000/svg" xmlns:xlink="http://www.w3.org/1999/xlink" width="848.733" height="582.721" viewBox="0 0 848.733 582.721">
  <defs>
    <linearGradient id="linear-gradient" x1="0.5" y1="1" x2="0.5" gradientUnits="objectBoundingBox">
      <stop offset="0" stop-color="gray" stop-opacity="0.251"/>
      <stop offset="0.54" stop-color="gray" stop-opacity="0.122"/>
      <stop offset="1" stop-color="gray" stop-opacity="0.102"/>
    </linearGradient>
  </defs>
  <g id="person" transform="translate(-23.27 0.002)">
    <path id="Path_566" data-name="Path 566" d="M602.569,196.98c-54.4-1.891-106.2-19.449-155.684-38.663s-98.472-40.5-151.566-50.682c-34.149-6.547-73.2-7.472-100.716,10.834-26.475,17.65-35.032,48.034-39.638,76.249-3.454,21.239-5.5,43.579,3.992,63.457,6.581,13.8,18.272,25.4,26.358,38.621,28.123,45.992,8.245,102.708-22.239,147.616C148.788,465.475,132.2,485.6,121.161,508s-16.137,48.118-6.489,71c9.573,22.693,32.376,39.7,57.069,51.682,50.169,24.324,109.264,31.292,166.938,35.233,127.6,8.733,255.9,4.951,383.836,1.168,47.353-1.4,94.908-2.824,141.488-10.145,25.87-4.068,52.581-10.523,71.358-26.055,23.836-19.777,29.745-53.27,13.776-78.065-26.795-41.6-100.859-51.934-119.61-96.573-10.313-24.568.277-51.942,15.255-74.728,32.14-48.891,86.008-91.773,88.848-147.658,1.95-38.377-23.946-76.812-63.987-94.976-41.974-19.037-100.17-16.642-131.117,14.868C706.622,186.163,650.595,198.645,602.569,196.98Z" transform="translate(-86.079 -103.35)" fill="#f6f8f9"/>
    <path id="Path_567" data-name="Path 567" d="M462.576,679.874a31.9,31.9,0,0,0-3.362-8.766,30.708,30.708,0,0,0-5.505-6.026c-6.094-5.53-13.574-11.145-21.651-9.75a28.906,28.906,0,0,0-7.178,2.622c-1.177.546-2.362,1.093-3.572,1.555a17.794,17.794,0,0,1-10.775.941c-1.849-.5-3.572-1.387-5.4-1.942a17.108,17.108,0,0,0-2.648-.571,45.09,45.09,0,0,0,5.119-2.7c9.061-5.547,16.289-15.574,15.28-26.3a43.417,43.417,0,0,0-2.807-10.464l-3.228-8.926c-1.4-3.866-2.841-7.808-5.388-11.019-2.833-3.58-6.867-6.01-11.036-7.817-8.951-3.891-18.735-5.262-28.392-6.59l-.672-.092V479.7a6.724,6.724,0,0,0-6.724-6.724H351.951q-.84-5.144-1.681-10.271c-1.6-9.758-3.253-19.693-7.749-28.476-2.942-5.749-7.623-11.237-13.935-12.364a13.515,13.515,0,0,1-3.623-.84c-1.849-.908-2.858-2.925-4.278-4.413-3.665-3.841-9.624-3.9-14.532-5.883-4.337-1.723-7.884-4.967-11.834-7.464s-8.859-4.27-13.229-2.648a8.873,8.873,0,0,1-.092.95l-2.807-1.294c-3.026-1.4-6.11-2.841-8.539-5.144-3.118-2.942-4.782-6.842-6.077-10.985-.135-.429-.261-.84-.4-1.3a39.024,39.024,0,0,0,10.456-19.962l.681,2.21a14.687,14.687,0,0,0,.538,1.462,5.766,5.766,0,0,0,1.681,2.379,2.986,2.986,0,0,0,.706.412,2.944,2.944,0,0,0,.723.185,2.69,2.69,0,0,0,1.042-.076,3.976,3.976,0,0,0,2.521-2.337,5.043,5.043,0,0,0,.294-1.025,5.3,5.3,0,0,0,.059-.639v-.874a1.641,1.641,0,0,0-.042-.42v-.219a2.446,2.446,0,0,0-.084-.5c-.034-.16,0-.092,0-.134-.042-.21-.092-.429-.134-.639v-.16c0-.05-.076-.345-.118-.521s-.059-.227-.084-.345v-.05h0c-.084-.336-.16-.664-.235-1a28.9,28.9,0,0,1-.462-8.876,95.035,95.035,0,0,1,2.4-12.9l.176-.765c.067-.294.135-.588.193-.891.134-.605.269-1.21.4-1.824h0l.3-1.547.227-1.378v-.177a39.845,39.845,0,0,0,.294-9.439h0a19.864,19.864,0,0,0-4.732-11.868c-2.11-2.345-4.892-4.076-6.85-6.539-1.832-2.3-2.866-5.144-4.766-7.4-5.245-6.262-18.709-11.086-26.971-11.927-9.464-.958-24.752,1.462-32.384,7.052-2.824,2.059-4.757,5.043-6.724,7.867-3.614,5.253-7.716,10.5-13.507,13.448-2.185,1.109-4.69,1.95-6.144,3.883a10.5,10.5,0,0,0-1.639,4.354,86.328,86.328,0,0,0-1.731,16.625h0v2.1a15.322,15.322,0,0,0,1.311,6.077c.134.286.286.563.445.84l.1.176a33.435,33.435,0,0,1,2.69,4.581,6.069,6.069,0,0,1,.412,1.4,10.288,10.288,0,0,1-.235,3.681h0a3.234,3.234,0,0,1-.109.555l-.076.361a.709.709,0,0,1-.067.37c-.067.361-.126.723-.176,1.076h0a7.564,7.564,0,0,0,.185,2.908,3.824,3.824,0,0,0,1.866,2.521,5.467,5.467,0,0,0,1.513.471c.53.092,1.067.151,1.589.269a7.843,7.843,0,0,1,1.925.714,7.75,7.75,0,0,1,1.622,1.042,9.241,9.241,0,0,1,.7.706,11.767,11.767,0,0,1,1.193,1.631q.269.445.5.908a20.735,20.735,0,0,1,1.437,3.8c.219.782.4,1.572.563,2.362.076.353.143.706.2,1.051s.118.7.168,1.042h0a2.447,2.447,0,0,0,.672-.134c1.236-.445,1.925-1.883,2.311-3.278.067-.235.126-.462.177-.689.193-.84.4-1.765.588-2.648a38.973,38.973,0,0,0,15.339,16.894c.235.7.462,1.387.664,2.093,1.1,3.807,1.631,7.791-.277,11.12a11.766,11.766,0,0,1-6.2,4.824,4.1,4.1,0,0,0-1.387-1.177c-2.21-1.109-4.866.235-6.724,1.891-3.362,3.043-6.1,7.4-10.523,8.4-1.6.37-3.362.294-4.69,1.269a10.927,10.927,0,0,0-2.177,2.858,10.019,10.019,0,0,1-8.6,4.286c-1.538-.076-3.362-.429-4.413.7-.782.841-.84,2.168-1.681,2.967-1.126,1.109-2.975.572-4.547.5-2.992-.126-5.774,1.807-7.48,4.287s-2.521,5.446-3.362,8.4v.05a6,6,0,0,0-.614.513,8.867,8.867,0,0,0-1.857,3.009,143.614,143.614,0,0,0-11.851,48.9,5.042,5.042,0,0,1-.538,2.37,11.661,11.661,0,0,1-1.236,1.345,4.715,4.715,0,0,0,.782,6.724,5.3,5.3,0,0,1,.9-1.193c-.092.387-.176.765-.235,1.109a29.83,29.83,0,0,0-.092,7.4q1.194,17.516,2.412,35.007c.227,3.3.454,6.6.756,9.893q.882,9.565,2.521,19.054a8.214,8.214,0,0,0,.185.84c-6.85,2.177-12.944,6.11-15.507,12.675-.891,2.269-1.294,4.74-2.387,6.917-1.2,2.387-3.177,4.295-4.488,6.632-2.261,4.018-2.362,8.943-1.538,13.448,1.589,8.783,6.337,16.633,12.607,23.021h-.84a13.145,13.145,0,0,0-5.741,2.059c-13.263,7.749-20.844,24.374-18.079,39.553a16.969,16.969,0,0,0,3.48,8.237,13.036,13.036,0,0,0,6.119,3.749,21.262,21.262,0,0,0,4.513.84c10.338.841,20.348-3.95,30.712-4.354a82.371,82.371,0,0,1,10.279.479q7.489.622,15,.79c8.144.193,12.725-1.975,17.919-8.06a21.939,21.939,0,0,0,3.169-4.993c4.421-.252,9.3-.639,12.834-.924l.05.488c.193,1.681.488,3.614,1.832,4.673a6.4,6.4,0,0,0,2.521,1.034c8.489,2.084,17.079,4.2,25.82,4.2a109.036,109.036,0,0,0,12.263-.941l15.356-1.773a76.49,76.49,0,0,1,13.2,2.875c4.438,1.5,8.581,3.74,12.918,5.514,10.086,4.085,20.928,5.547,31.67,6.976,1.832.244,3.934.412,5.287-.84,1.748-1.681,1.168-4.488.672-6.842-.2-.967-.353-1.933-.471-2.908a147.3,147.3,0,0,1,21.214,7.363l1.2.53c.353,1.832,2.042,3.295,3.665,5.27a13.441,13.441,0,0,0,1.857,2.3,6.2,6.2,0,0,0,2.664.958,124.244,124.244,0,0,0,34.4,1.555,35.182,35.182,0,0,1,7.094-.244,30.735,30.735,0,0,1,5.127,1.151l9.724,2.79c7.169,2.051,14.507,4.127,21.945,3.665a28.082,28.082,0,0,0,4.48-.647c5.883-1.362,11.363-4.648,14.188-9.935C466.569,696.616,464.728,687.774,462.576,679.874Z" transform="translate(-86.037 -132.302)" fill="url(#linear-gradient)"/>
    <path id="Path_568" data-name="Path 568" d="M205.448,748.957c-1.773-4.034-3.454-8.674-1.681-12.708A10.8,10.8,0,0,1,209.356,731a26.9,26.9,0,0,1,7.564-1.866,105.565,105.565,0,0,1,24.593-.336c.6,4.724-.664,9.514-1.748,14.078-.983,4.2-1.547,4.824-5.883,5.043C231.074,748.066,206.112,750.445,205.448,748.957Z" transform="translate(-100.984 -203.025)" fill="#fbbebe"/>
    <ellipse id="Ellipse_88" data-name="Ellipse 88" cx="120.19" cy="33.62" rx="120.19" ry="33.62" transform="translate(59.12 451.478)" fill="#464353"/>
    <ellipse id="Ellipse_89" data-name="Ellipse 89" cx="120.19" cy="33.62" rx="120.19" ry="33.62" transform="translate(59.12 451.478)" opacity="0.1"/>
    <path id="Path_569" data-name="Path 569" d="M305.106,456.358a37.394,37.394,0,0,1-19.281,17.516,48.4,48.4,0,0,1-15.305,2.908c-5.707.261-11.531-.109-16.894-2.059-7.195-2.605-13.17-7.934-17.65-14.145s-7.564-13.3-10.246-20.458c-1.412-3.723-2.757-7.69-2.093-11.624,4.329-.983,9.069-2.429,11.3-6.27,1.908-3.295,1.378-7.245.277-11.01-.311-1.067-.672-2.126-1.034-3.143-.84-2.437-3.74-7.069-1.681-9.153,1.286-1.32,6.674-1.992,8.531-2.849,5.724-2.639,11-6.455,17.289-7.707,5.438-1.084,11.052-.067,16.482,1.059a5.42,5.42,0,0,1,2.034.731,4.891,4.891,0,0,1,1.513,2.269c1.547,3.765,2.454,7.926,3.7,11.851,1.294,4.11,2.958,7.968,6.077,10.884,2.429,2.278,5.522,3.707,8.548,5.093l7.447,3.412a9.792,9.792,0,0,1,3.522,2.278,8.919,8.919,0,0,1,1.681,4.572,42.715,42.715,0,0,1-4.219,25.845Z" transform="translate(-104.245 -148.739)" fill="#fbbebe"/>
    <path id="Path_570" data-name="Path 570" d="M283.6,404.273a38.663,38.663,0,0,1-46.79,6.943c-.311-1.067-.672-2.126-1.034-3.143-.84-2.437-3.74-7.069-1.681-9.153,1.286-1.32,6.674-1.992,8.531-2.849,5.724-2.639,11-6.455,17.289-7.707,5.438-1.084,11.052-.067,16.482,1.059a5.42,5.42,0,0,1,2.034.731,4.892,4.892,0,0,1,1.513,2.269C281.446,396.187,282.354,400.348,283.6,404.273Z" transform="translate(-105.826 -148.739)" opacity="0.1"/>
    <circle id="Ellipse_90" data-name="Ellipse 90" cx="38.663" cy="38.663" r="38.663" transform="translate(111.23 188.404)" fill="#fbbebe"/>
    <path id="Path_571" data-name="Path 571" d="M362.38,507.367,359.2,488.12c-1.605-9.657-3.261-19.5-7.749-28.2-2.95-5.7-7.632-11.128-13.944-12.254a13.489,13.489,0,0,1-3.631-.84c-1.849-.891-2.858-2.891-4.278-4.371-3.665-3.8-9.632-3.858-14.54-5.791-4.337-1.681-7.884-4.917-11.834-7.388s-8.867-4.2-13.238-2.622c-.706,7.522-1.454,15.213-4.648,22.063a33.015,33.015,0,0,1-49.808,12.406c-7.489-5.64-12.288-14.339-14.524-23.441-.546-2.219-1.168-4.766-3.211-5.783-2.211-1.109-4.866.235-6.724,1.866-3.362,3.017-6.11,7.337-10.531,8.354-1.6.37-3.362.294-4.69,1.261a10.673,10.673,0,0,0-2.185,2.832,10.086,10.086,0,0,1-8.6,4.253c-1.538-.076-3.362-.429-4.413.689-.782.84-.84,2.152-1.681,2.933-1.135,1.1-2.975.563-4.555.5-2.992-.126-5.774,1.79-7.489,4.2s-2.521,5.4-3.362,8.287c9.187,20.458,17.591,40.94,26.778,61.4a5.236,5.236,0,0,1,.664,2.521,6.145,6.145,0,0,1-1.143,2.522c-4.505,7.237-4.362,16.339-3.866,24.845s1.1,17.491-2.7,25.114c-1.034,2.093-2.379,4.009-3.362,6.1-2.3,4.74-3.135,19.9-1.79,25H368.171c-3.623-9.96-2.244-29.947-1.488-40.52.53-7.4-.84-14.784-1.429-22.181C363.968,536.776,364.876,522.446,362.38,507.367Z" transform="translate(-94.692 -154.824)" fill="#fecb2f"/>
    <path id="Path_572" data-name="Path 572" d="M146.2,546.829a29.753,29.753,0,0,0-.1,7.337l2.412,34.687c.227,3.269.454,6.531.756,9.792.58,6.329,1.446,12.607,2.521,18.878a3.362,3.362,0,0,0,3.446,3.27c10.632,2.252,21.617,2.16,32.468,1.547,16.558-.925,33.09-3.034,49.673-2.673,4.27.092,9.245,0,11.834-3.362s1.084-8.8-2.295-11.515-7.968-3.362-12.3-3.362c-5.741-.059-11.481.757-17.2.42A85.227,85.227,0,0,1,201.921,599l-14.288-3.555c.546-4.329,2.194-8.4,3.757-12.515,2.807-7.287,5.43-14.818,5.48-22.626s-2.891-16.02-9.287-20.491c-5.261-3.673-12.036-4.354-18.449-4.2-4.665.134-12.725-.983-16.986.841C148.777,537.929,146.827,543.526,146.2,546.829Z" transform="translate(-91.876 -172.265)" fill="#fbbebe"/>
    <path id="Path_573" data-name="Path 573" d="M382.924,643.229c2.8-1.067,5.883-.681,8.884-.277,9.657,1.32,19.457,2.673,28.409,6.531,4.2,1.8,8.2,4.2,11.044,7.741,2.521,3.185,3.992,7.085,5.388,10.926l3.228,8.842a42.566,42.566,0,0,1,2.816,10.363c1.009,10.582-6.228,20.558-15.331,26.055s-19.819,7.455-30.258,9.506-20.92,4.32-31.317,6.724a126.057,126.057,0,0,1-14.734,2.9c-11.128,1.261-22.761-.6-33.334,3.085-4.2,1.471-8.329,3.656-12.691,4.673a78.947,78.947,0,0,1-8.775,1.336l-20.012,2.286a109.185,109.185,0,0,1-12.271.941c-8.741,0-17.339-2.068-25.828-4.135a6.53,6.53,0,0,1-2.521-1.017c-1.345-1.059-1.639-2.933-1.832-4.631q-1.286-11.271-2.253-22.567c-.2-2.446-.353-5.093.983-7.153,1.681-2.521,4.959-3.312,7.951-3.8a207.5,207.5,0,0,1,38.394-2.664c4.883-4.883,12.935-4.909,19.331-7.564a57.5,57.5,0,0,0,6.816-3.707A89.091,89.091,0,0,1,342.438,675.8a34.839,34.839,0,0,0,7.657-1.093c4.951-1.538,9.464-5.724,14.549-4.7.63-1.74,1.067-4.068,2.521-5.261.723-.614,1.614-1.025,2.278-1.681,1.4-1.42,1.53-3.656,1.32-5.64s-.681-4.018-.168-5.951a8.227,8.227,0,0,1,.933-2.076C374.049,645.044,377.856,642.809,382.924,643.229Z" transform="translate(-105.512 -189.356)" fill="#464353"/>
    <path id="Path_574" data-name="Path 574" d="M382.924,643.229c2.8-1.067,5.883-.681,8.884-.277,9.657,1.32,19.457,2.673,28.409,6.531,4.2,1.8,8.2,4.2,11.044,7.741,2.521,3.185,3.992,7.085,5.388,10.926l3.228,8.842a42.566,42.566,0,0,1,2.816,10.363c1.009,10.582-6.228,20.558-15.331,26.055s-19.819,7.455-30.258,9.506-20.92,4.32-31.317,6.724a126.057,126.057,0,0,1-14.734,2.9c-11.128,1.261-22.761-.6-33.334,3.085-4.2,1.471-8.329,3.656-12.691,4.673a78.947,78.947,0,0,1-8.775,1.336l-20.012,2.286a109.185,109.185,0,0,1-12.271.941c-8.741,0-17.339-2.068-25.828-4.135a6.53,6.53,0,0,1-2.521-1.017c-1.345-1.059-1.639-2.933-1.832-4.631q-1.286-11.271-2.253-22.567c-.2-2.446-.353-5.093.983-7.153,1.681-2.521,4.959-3.312,7.951-3.8a207.5,207.5,0,0,1,38.394-2.664c4.883-4.883,12.935-4.909,19.331-7.564a57.5,57.5,0,0,0,6.816-3.707A89.091,89.091,0,0,1,342.438,675.8a34.839,34.839,0,0,0,7.657-1.093c4.951-1.538,9.464-5.724,14.549-4.7.63-1.74,1.067-4.068,2.521-5.261.723-.614,1.614-1.025,2.278-1.681,1.4-1.42,1.53-3.656,1.32-5.64s-.681-4.018-.168-5.951a8.227,8.227,0,0,1,.933-2.076C374.049,645.044,377.856,642.809,382.924,643.229Z" transform="translate(-105.512 -189.356)" opacity="0.05"/>
    <path id="Path_575" data-name="Path 575" d="M198.288,750.93c-5.2,6.026-9.783,8.178-17.928,7.985q-7.514-.177-15.011-.782a84.23,84.23,0,0,0-10.288-.479c-10.372.4-20.382,5.152-30.728,4.32a21.8,21.8,0,0,1-4.513-.84,13.137,13.137,0,0,1-6.127-3.715,16.741,16.741,0,0,1-3.48-8.161c-2.765-15.078,4.816-31.5,18.087-39.175a13.264,13.264,0,0,1,5.749-2.042,13.625,13.625,0,0,1,5.816,1.278l.126.05a43.981,43.981,0,0,1,14.406,9.615,8.123,8.123,0,0,0,2.2,1.773,7.569,7.569,0,0,0,2.6.488l11.044.7a26.174,26.174,0,0,1,5.547.765,44.086,44.086,0,0,1,5.833,2.521c5.942,2.656,12.532,3.362,18.953,4.387a2.832,2.832,0,0,1,1.681.672,2.63,2.63,0,0,1,.521,1.092A21.441,21.441,0,0,1,198.288,750.93Z" transform="translate(-86.091 -199.804)" fill="#3f3d56"/>
    <path id="Path_576" data-name="Path 576" d="M139.991,709.378A66.314,66.314,0,0,0,128.939,723.2a69.157,69.157,0,0,0-9.027,27.35,50.765,50.765,0,0,0-.092,10.6,13.135,13.135,0,0,1-6.127-3.715,16.741,16.741,0,0,1-3.48-8.161c-2.765-15.078,4.816-31.5,18.087-39.175a13.263,13.263,0,0,1,5.749-2.042,13.625,13.625,0,0,1,5.816,1.278Z" transform="translate(-86.091 -199.805)" opacity="0.1"/>
    <path id="Path_577" data-name="Path 577" d="M395.343,734.21c6.178-.168,13.112-.479,17.65,3.681,4.329,3.933,4.9,10.422,5.186,16.263l.328,6.783a13.549,13.549,0,0,1-.647,6.119c-1.479,3.362-5.539,4.984-9.245,4.791s-7.111-1.816-10.5-3.278a147.676,147.676,0,0,0-28.577-9q.479-7.035,1.6-14c.513-3.219.6-8.607,2.748-11.279,2.278-2.824,5.245-1.294,8.338-.773a66.933,66.933,0,0,0,13.12.7Z" transform="translate(-127.546 -203.726)" fill="#fbbebe"/>
    <path id="Path_578" data-name="Path 578" d="M192.941,649.9c0,.841-1.32,0-1.437-.9-.925-6.8-6.321-12.406-12.607-15.129s-13.448-2.866-20.256-2.219c-10.3.975-21.853,4.917-25.618,14.541-.891,2.252-1.294,4.69-2.387,6.85-1.21,2.37-3.185,4.261-4.5,6.564-2.261,3.984-2.353,8.867-1.538,13.372,2.194,12.019,10.414,22.3,20.374,29.417s21.6,11.372,33.208,15.2a575.888,575.888,0,0,0,94.135,22.483c5.177.782,10.405,1.5,15.364,3.169,4.438,1.488,8.59,3.715,12.927,5.463,10.086,4.051,20.937,5.5,31.687,6.917,1.832.235,3.933.4,5.287-.841,1.748-1.622,1.168-4.446.672-6.774a36.436,36.436,0,0,1,4.295-25.854c1.8-3.026,4.135-6.127,3.8-9.632-.4-4.085-4.471-6.976-8.523-7.632s-8.17.311-12.238.841a6.557,6.557,0,0,1-4.16-.412,8.312,8.312,0,0,1-1.631-1.446,18.432,18.432,0,0,0-21.466-3c-1.5.84-3.782-1.034-5.346-1.74l-17.676-8c-20.306-9.187-40.713-18.415-62.2-24.231a13.062,13.062,0,0,1-4.791-1.992c-1.067-.84-1.832-1.983-2.816-2.917-2.143-2.026-5.127-2.832-7.7-4.27S192.353,652.779,192.941,649.9Z" transform="translate(-88.401 -187.568)" fill="#464353"/>
    <path id="Path_579" data-name="Path 579" d="M510.226,774.963c-2.824,5.236-8.3,8.5-14.187,9.842a28.158,28.158,0,0,1-4.488.639c-7.438.462-14.784-1.6-21.954-3.631l-9.733-2.74a30.721,30.721,0,0,0-5.127-1.143,35.181,35.181,0,0,0-7.094.244,125.729,125.729,0,0,1-34.46-1.547,6.076,6.076,0,0,1-2.664-.95,13.237,13.237,0,0,1-1.857-2.278c-2.648-3.186-5.5-5.043-2.362-9.245,1.807-2.437,5.161-3.656,6.564-6.455s.5-6.774-.328-9.666c-1.135-3.992-4.866-5.715-6.2-9.38-1-2.765.681-5.976,3.211-7.48s5.657-1.622,8.573-1.236,5.774,1.21,8.707,1.437c8.623.689,17.44-3.757,25.719-1.252,1.824.555,3.547,1.437,5.4,1.925a17.944,17.944,0,0,0,10.783-.933c1.21-.454,2.4-1,3.572-1.538a28.768,28.768,0,0,1,7.186-2.6c8.077-1.387,15.566,4.2,21.659,9.657a30.625,30.625,0,0,1,5.505,5.967,29.957,29.957,0,0,1,3.362,8.682C512.235,759.061,514.075,767.819,510.226,774.963Z" transform="translate(-133.19 -202.79)" fill="#3f3d56"/>
    <path id="Path_580" data-name="Path 580" d="M523.018,774.953c-2.824,5.236-8.3,8.5-14.187,9.842a27.475,27.475,0,0,0,2.984-14.423c-.5-7.993-4.018-15.524-8.5-22.164a78.507,78.507,0,0,0-9.363-11.405c-2.673-2.69-5.959-4.824-8.834-7.287a28.768,28.768,0,0,1,7.186-2.6c8.077-1.387,15.566,4.2,21.659,9.657a30.63,30.63,0,0,1,5.505,5.967,29.959,29.959,0,0,1,3.362,8.682C525.026,759.051,526.867,767.809,523.018,774.953Z" transform="translate(-145.982 -202.781)" opacity="0.1"/>
    <path id="Path_581" data-name="Path 581" d="M159.851,474.593a8.7,8.7,0,0,0-1.866,2.984,141.088,141.088,0,0,0-11.851,48.429,4.841,4.841,0,0,1-.546,2.345,10.256,10.256,0,0,1-1.236,1.336,4.64,4.64,0,0,0,.79,6.724c1.387-2.614,4.707-3.463,7.657-3.69,14.129-1.118,27.93,5.455,42.1,4.959-1-3.454-2.437-6.774-3.253-10.271-3.606-15.524,5.388-32.426-.126-47.378-1.1-2.992-2.942-5.934-5.841-7.245a15.556,15.556,0,0,0-3.74-.992c-3.58-.647-10.708-3.412-14.171-2.3-1.278.412-1.782,1.614-2.841,2.337C163.322,472.861,161.188,473.239,159.851,474.593Z" transform="translate(-91.452 -161.712)" fill="#fecb2f"/>
    <rect id="Rectangle_39" data-name="Rectangle 39" width="187.43" height="119.35" rx="7.97" transform="translate(98.203 343.475)" fill="#3f3d56"/>
    <circle id="Ellipse_91" data-name="Ellipse 91" cx="5.043" cy="5.043" r="5.043" transform="translate(186.454 398.107)" fill="#fff"/>
    <path id="Path_582" data-name="Path 582" d="M222.532,297.495c-2.824,2.042-4.757,4.976-6.724,7.791-3.623,5.2-7.724,10.4-13.515,13.3-2.194,1.1-4.7,1.933-6.152,3.849a10.372,10.372,0,0,0-1.639,4.312,85.438,85.438,0,0,0-1.731,16.474c0,2.757.118,5.6,1.336,8.1,1.151,2.353,3.228,4.345,3.656,6.909.328,2-.412,3.992-.672,6s.193,4.387,2.051,5.345a12.428,12.428,0,0,0,3.11.731c5.589,1.244,7.464,7.8,8.312,13.221,1.9-.109,2.757-2.286,3.152-4.06l5.825-25.9c.63-2.807,1.681-6.06,4.48-7.043,1.874-.647,3.925-.042,5.883.126,7.69.63,14.2-5.312,21.718-6.951a27.732,27.732,0,0,1,7.321-.488c5.934.294,12.834,2.732,14.1,8.27.21.9.336,1.975,1.177,2.421s1.723.067,2.605,0c3.765-.378,5.984,3.858,7.069,7.321l3.95,12.607c.588,1.908,1.58,4.152,3.648,4.4,1.908.235,3.53-1.572,3.816-3.362s-.336-3.648-.748-5.446c-1.858-8.279.983-16.751,2.715-25.047s2.042-17.827-3.765-24.215c-2.11-2.311-4.883-4.034-6.85-6.472-1.832-2.286-2.866-5.093-4.766-7.337-5.253-6.194-18.726-10.977-26.988-11.767C245.46,289.561,230.164,291.956,222.532,297.495Z" transform="translate(-99.35 -133.179)" fill="#3f3d56"/>
    <g id="Group_121" data-name="Group 121" transform="translate(93.429 194.7)" opacity="0.1">
      <path id="Path_583" data-name="Path 583" d="M292.333,376.493c-2.068-.252-3.059-2.521-3.648-4.4q-1.975-6.312-3.95-12.607c-1.084-3.471-3.3-7.707-7.069-7.321-.882.092-1.832.437-2.606,0s-.967-1.521-1.177-2.421c-1.261-5.547-8.161-7.976-14.1-8.27a28.1,28.1,0,0,0-7.321.479c-7.522,1.681-14.028,7.564-21.718,6.951-1.984-.16-4.034-.765-5.883-.118-2.832.975-3.849,4.2-4.48,7.043l-5.825,25.887c-.4,1.782-1.252,3.959-3.152,4.06-.84-5.413-2.723-11.969-8.312-13.213a13.213,13.213,0,0,1-3.11-.731,3.648,3.648,0,0,1-1.622-1.807c-.151.782-.328,1.563-.429,2.345-.252,2,.193,4.387,2.051,5.345a12.428,12.428,0,0,0,3.11.731c5.589,1.244,7.464,7.8,8.312,13.221,1.9-.109,2.757-2.286,3.152-4.06l5.825-25.9c.63-2.807,1.681-6.06,4.48-7.043,1.874-.647,3.925-.042,5.883.126,7.69.63,14.2-5.312,21.718-6.951a27.733,27.733,0,0,1,7.321-.487c5.934.294,12.834,2.732,14.1,8.27.21.9.336,1.975,1.177,2.421s1.723.067,2.606,0c3.765-.378,5.984,3.858,7.069,7.321q1.967,6.312,3.95,12.607c.588,1.908,1.58,4.152,3.648,4.4,1.908.235,3.53-1.572,3.816-3.362a11.414,11.414,0,0,0-.5-4.463,3.471,3.471,0,0,1-3.312,1.942Z" transform="translate(-193.592 -336.024)"/>
      <path id="Path_584" data-name="Path 584" d="M197.773,361.842c-.429-2.563-2.521-4.555-3.656-6.909a13.826,13.826,0,0,1-1.244-5.043c0,.941-.084,1.883-.092,2.832,0,2.757.118,5.6,1.336,8.1.933,1.908,2.471,3.589,3.244,5.53A12.658,12.658,0,0,0,197.773,361.842Z" transform="translate(-192.78 -337.375)"/>
      <path id="Path_585" data-name="Path 585" d="M316.511,341.581c-1.53,7.329-3.917,14.793-3.177,22.139.479-5.421,2.059-10.876,3.177-16.255A42.864,42.864,0,0,0,317.486,335a51.391,51.391,0,0,1-.975,6.581Z" transform="translate(-211.987 -335)"/>
    </g>
    <g id="Group_122" data-name="Group 122" transform="translate(251.012 103.094)" opacity="0.8">
      <line id="Line_14" data-name="Line 14" x2="525.357" transform="translate(25.769 141.06)" fill="none" stroke="#535461" stroke-miterlimit="10" stroke-width="3"/>
      <path id="Path_586" data-name="Path 586" d="M466.46,385.156s25.122,3.488,12.112-23.467,35.3-21.853,35.3-21.853" transform="translate(-394.018 -244.105)" fill="none" stroke="#535461" stroke-miterlimit="10" stroke-width="3"/>
      <path id="Path_587" data-name="Path 587" d="M665.53,393.8s25.122-3.48,12.111,23.475,35.3,21.853,35.3,21.853" transform="translate(-425.772 -252.751)" fill="none" stroke="#535461" stroke-miterlimit="10" stroke-width="3"/>
      <path id="Path_588" data-name="Path 588" d="M943.162,393.8s-25.131-3.48-12.112,23.475-35.3,21.853-35.3,21.853" transform="translate(-462.494 -252.751)" fill="none" stroke="#535461" stroke-miterlimit="10" stroke-width="3"/>
      <line id="Line_15" data-name="Line 15" x1="138.622" transform="translate(294.634 186.371)" fill="none" stroke="#535461" stroke-miterlimit="10" stroke-width="3"/>
      <circle id="Ellipse_92" data-name="Ellipse 92" cx="15.339" cy="15.339" r="15.339" transform="translate(10.431 125.721)" fill="#fecb2f"/>
      <circle id="Ellipse_93" data-name="Ellipse 93" cx="15.339" cy="15.339" r="15.339" transform="translate(104.776 80.174)" fill="#6f869f"/>
      <circle id="Ellipse_94" data-name="Ellipse 94" cx="15.339" cy="15.339" r="15.339" transform="translate(104.776 125.721)" fill="#fecb2f"/>
      <circle id="Ellipse_95" data-name="Ellipse 95" cx="15.339" cy="15.339" r="15.339" transform="translate(165.661 125.721)" fill="#fecb2f"/>
      <circle id="Ellipse_96" data-name="Ellipse 96" cx="15.339" cy="15.339" r="15.339" transform="translate(272.084 170.805)" fill="#fd962f"/>
      <circle id="Ellipse_97" data-name="Ellipse 97" cx="15.339" cy="15.339" r="15.339" transform="translate(352.502 170.805)" fill="#fd962f"/>
      <circle id="Ellipse_98" data-name="Ellipse 98" cx="15.339" cy="15.339" r="15.339" transform="translate(348.308 125.721)" fill="#fecb2f"/>
      <circle id="Ellipse_99" data-name="Ellipse 99" cx="15.339" cy="15.339" r="15.339" transform="translate(531.905 125.721)" fill="#fecb2f"/>
      <circle id="Ellipse_100" data-name="Ellipse 100" cx="15.339" cy="15.339" r="15.339" transform="translate(456.799 125.721)" fill="#fecb2f"/>
      <rect id="Rectangle_40" data-name="Rectangle 40" width="51.463" height="35.469" fill="#fecb2f"/>
      <rect id="Rectangle_41" data-name="Rectangle 41" width="51.463" height="35.469" transform="translate(94.572)" fill="#6f869f"/>
      <rect id="Rectangle_42" data-name="Rectangle 42" width="51.463" height="35.469" transform="translate(261.477)" fill="#fd962f"/>
    </g>
  </g>
</svg>
