<?xml version="1.0" encoding="iso-8859-1"?>
<!-- Generator: Adobe Illustrator 19.0.0, SVG Export Plug-In . SVG Version: 6.00 Build 0)  -->
<svg version="1.1" id="Capa_1" xmlns="http://www.w3.org/2000/svg" xmlns:xlink="http://www.w3.org/1999/xlink" x="0px" y="0px"
	 viewBox="0 0 499.413 499.413" style="enable-background:new 0 0 499.413 499.413;" xml:space="preserve">
<g>
	<rect x="303.587" y="113.12" style="fill:#F1543F;" width="45.9" height="89.7"/>
	<rect x="151.387" y="113.12" style="fill:#F1543F;" width="45.9" height="89.7"/>
	<path style="fill:#F1543F;" d="M440.187,369.62h-379.6c-18.8,0-33.4,14.6-33.4,33.4s14.6,33.4,33.4,33.4h380.6
		c18.8,0,33.4-14.6,33.4-33.4C473.487,384.22,458.887,369.62,440.187,369.62z"/>
</g>
<g>
	<path style="fill:#FF7058;" d="M60.587,369.62h380.6c12.5,0,22.9,7.3,29.2,16.7c-7.3-29.2-18.8-68.8-36.5-108.4
		c-31.3-69.9-101.1-114.7-178.3-115.7c-3.1,0-6.3,0-8.3,0c-78.2,0-148.1,45.9-179.3,115.7c-17.8,39.6-29.2,79.2-36.5,108.4
		C36.687,375.92,48.087,369.62,60.587,369.62z"/>
	<path style="fill:#FF7058;" d="M493.287,204.92c-5.2,9.4-15.6,15.6-27.1,15.6h-53.2c-14.6,0-27.1-9.4-30.2-24
		c-4.2-21.9,6.3-46.9,6.3-46.9c-24-18.8-79.2-26.1-112.6-29.2c-17.7-1-35.5-1-53.2,0c-33.4,3.1-88.6,10.4-112.6,29.2
		c0,0,10.4,26.1,6.3,48c-3.1,13.6-15.6,22.9-30.2,22.9h-52.2c-11.5,0-21.9-6.3-27.1-15.6c-5.2-10.4-8.3-21.9-7.3-33.4
		c0-2.1,1-5.2,1-8.3c0,0,1-74,168.9-95.9c0,0,36.5-5.2,68.8-4.2c6.3,0,13.6,0,19.8,0c33.4-1,68.8,4.2,68.8,4.2
		c167.9,20.9,168.9,95.9,168.9,95.9c1,3.1,1,5.2,1,8.3C501.687,183.02,498.587,195.52,493.287,204.92z"/>
</g>
<g>
	<path style="fill:#F1543F;" d="M7.487,191.32c5.2,9.4,15.6,14.6,27.1,14.6h53.2c14.4,0,26.5-9.2,29.8-23.5c0.1-0.4,0.1-0.8,0.1-1.2
		c-0.1-1.3-0.3-3.5-0.3-3.5c1,6.3,1.7,12.5-0.4,18.8c-1.5,13.4-15.6,24-30.2,24h-52.2c-10.4,0-21.9-5.2-28.1-14.6
		c-4.2-7.3-6.3-16.7-6.3-26.1C2.287,184.02,5.387,188.12,7.487,191.32z"/>
	<path style="fill:#F1543F;" d="M492.287,192.32c-5.2,9.4-15.6,14.6-27.1,14.6h-53.2c-14.6,0-27-9.4-30.1-23.9v-0.1
		c0-1,0.2-2.4,0.2-4.4v0.3c-1,6.3-1.4,12.5,0.7,18.7c3.1,13.6,15.6,24,30.2,24h53.2c10.4,0,20.9-5.2,27.1-14.6
		c5.2-8.3,6.4-17.6,5.9-27C496.187,185.12,494.387,189.12,492.287,192.32z"/>
</g>
<ellipse style="fill:#F2F2F2;" cx="250.387" cy="269.52" rx="86.5" ry="71.9"/>
<ellipse style="fill:#ACB3BA;" cx="250.387" cy="269.52" rx="34.4" ry="29.2"/>
<g>
	<ellipse style="fill:#CDD6E0;" cx="250.387" cy="216.32" rx="13.6" ry="11.5"/>
	<ellipse style="fill:#CDD6E0;" cx="250.387" cy="323.72" rx="13.6" ry="11.5"/>
	<path style="fill:#CDD6E0;" d="M305.687,239.32c-5.2,4.2-13.6,4.2-18.8,0c-5.2-4.2-5.2-11.5,0-15.6c5.2-4.2,13.6-4.2,18.8,0
		C310.887,227.82,310.887,235.12,305.687,239.32z"/>
	<path style="fill:#CDD6E0;" d="M214.987,315.42c-5.2,4.2-13.6,4.2-18.8,0s-5.2-11.5,0-15.6s13.6-4.2,18.8,0
		C220.187,303.92,220.187,311.22,214.987,315.42z"/>
	<ellipse style="fill:#CDD6E0;" cx="313.987" cy="269.52" rx="13.6" ry="11.5"/>
	<ellipse style="fill:#CDD6E0;" cx="186.787" cy="269.52" rx="13.6" ry="11.5"/>
	<path style="fill:#CDD6E0;" d="M285.887,315.42c-5.2-4.2-5.2-11.5,0-15.6c5.2-4.1,13.6-4.2,18.8,0c5.2,4.2,5.2,11.5,0,15.6
		C300.487,320.62,291.087,320.62,285.887,315.42z"/>
	<path style="fill:#CDD6E0;" d="M195.087,239.32c-5.2-4.2-5.2-11.5,0-15.6c5.2-4.2,13.6-4.2,18.8,0s5.2,11.5,0,15.6
		C209.687,244.52,200.387,244.52,195.087,239.32z"/>
</g>
<g>
</g>
<g>
</g>
<g>
</g>
<g>
</g>
<g>
</g>
<g>
</g>
<g>
</g>
<g>
</g>
<g>
</g>
<g>
</g>
<g>
</g>
<g>
</g>
<g>
</g>
<g>
</g>
<g>
</g>
</svg>
