<?xml version="1.0" encoding="UTF-8"?>
<svg viewBox="0 0 501.85 501.85" xmlns="http://www.w3.org/2000/svg">
<g transform="translate(0)" data-name="003-rocket">
<path transform="translate(-266.45)" d="m423.34 307.35 38.665-1.05-1.045 38.661c-1.045 62.694-53.29 113.89-115.98 115.98l-38.665 1.055 1.045-38.661c2.091-62.699 53.291-114.94 115.98-115.99z" fill="#f8b64c" data-name="Path 589"/>
<path transform="translate(-266.45)" d="m412.89 328.25 27.167-1.045-1.045 27.167c-1.045 44.931-38.661 82.547-83.592 83.592l-27.167 1.045 1.045-27.167c1.045-44.931 38.662-82.547 83.592-83.592z" fill="#ffd15c" data-name="Path 590"/>
<path transform="translate(-91.285)" d="m91.434 304.22c5.224-9.4 12.539-17.763 19.853-25.078a142.76 142.76 0 0 1 66.874-37.616c47.02-11.494 99.265 1.045 135.84 37.616s49.11 88.816 37.616 135.84c-6.269 24.033-18.808 48.065-37.616 66.873a149.46 149.46 0 0 1-25.078 19.853 205.19 205.19 0 0 0 152.56-59.559c33.437-33.437 52.245-74.188 58.514-117.03a204.04 204.04 0 0 0-58.514-172.41c-47.02-47.02-111.8-66.873-172.41-58.514-42.841 6.269-84.637 25.078-117.03 58.514-42.838 40.756-62.694 97.181-60.604 151.52z" fill="#ff7058" data-name="Path 591"/>
<path transform="translate(90.01)" d="m0 305.26c29.257-178.68 182.86-310.33 373.03-305.11l37.616 1.05 1.045 37.616c5.224 190.17-126.43 343.77-305.11 373.03z" fill="#f2f2f2" data-name="Path 592"/>
<g transform="translate(91.055 .037)" fill="#40596b" data-name="Group 123">
<path transform="translate(-223.76 -.037)" d="m410.8 388.85c-26.122 10.449-53.29 17.763-81.5 22.988l-105.54-105.54c4.18-28.212 12.539-55.38 22.988-81.5z" data-name="Path 593"/>
<path transform="translate(247.6 -.037)" d="M.037,16.869A402.1,402.1,0,0,1,124.38.15L162,1.2l1.045,37.616a402.1,402.1,0,0,1-16.718,124.343Z" data-name="Path 594"/>
</g>
<path transform="translate(-218.38)" d="m414.97 411.84c-10.449 2.09-21.943 3.135-32.392 4.18l-77.322-77.32c1.045-11.494 2.09-21.943 4.18-32.392z" fill="#f2f2f2" data-name="Path 595"/>
<ellipse transform="translate(246.88 94.506)" cx="80.456" cy="80.456" rx="80.456" ry="80.456" fill="#40596b" data-name="Ellipse 101"/>
<ellipse transform="translate(270.91 118.54)" cx="56.424" cy="56.424" rx="56.424" ry="56.424" fill="#84dbff" data-name="Ellipse 102"/>
<path transform="translate(152.55)" d="m210.18 147.48a50.287 50.287 0 0 0-73.143 68.963c-1.045-1.045-2.09-1.045-2.09-2.09a56.153 56.153 0 1 1 79.412 0c-1.045 1.045-2.09 1.045-2.09 2.09 16.719-19.853 16.719-50.155-2.089-68.963z" fill="#54c0eb" data-name="Path 596"/>
</g>
</svg>
