<?xml version="1.0" encoding="iso-8859-1"?>
<!-- Generator: Adobe Illustrator 19.0.0, SVG Export Plug-In . SVG Version: 6.00 Build 0)  -->
<svg version="1.1" id="Layer_1" xmlns="http://www.w3.org/2000/svg" xmlns:xlink="http://www.w3.org/1999/xlink" x="0px" y="0px"
	 viewBox="0 0 512 512" style="enable-background:new 0 0 512 512;" xml:space="preserve">
<path style="fill:#40596B;" d="M411.733,512H100.267c-11.733,0-21.333-9.6-21.333-21.333V21.333C78.933,9.6,88.533,0,100.267,0
	h311.467c11.733,0,21.333,9.6,21.333,21.333v469.333C433.067,502.4,423.467,512,411.733,512z"/>
<rect x="121.6" y="64" style="fill:#F2F2F2;" width="268.8" height="357.333"/>
<g>
	<path style="fill:#334A5E;" d="M307.2,32L307.2,32c0-4.267-3.2-7.467-7.467-7.467h-87.467c-4.267,0-7.467,3.2-7.467,7.467l0,0
		c0,4.267,3.2,7.467,7.467,7.467h87.467C304,39.467,307.2,36.267,307.2,32z"/>
	<circle style="fill:#334A5E;" cx="256" cy="466.133" r="28.8"/>
</g>
<rect x="328.533" y="153.6" style="fill:#4CDBC4;" width="27.733" height="177.067"/>
<rect x="284.8" y="203.733" style="fill:#84DBFF;" width="27.733" height="128"/>
<rect x="242.133" y="230.4" style="fill:#FFD05C;" width="27.733" height="100.267"/>
<rect x="199.467" y="188.8" style="fill:#F2705B;" width="27.733" height="141.867"/>
<rect x="156.8" y="252.8" style="fill:#84DBFF;" width="27.733" height="77.867"/>
<g>
</g>
<g>
</g>
<g>
</g>
<g>
</g>
<g>
</g>
<g>
</g>
<g>
</g>
<g>
</g>
<g>
</g>
<g>
</g>
<g>
</g>
<g>
</g>
<g>
</g>
<g>
</g>
<g>
</g>
</svg>
